<svg width="90" height="50" viewBox="0 0 90 50" fill="none" xmlns="http://www.w3.org/2000/svg">
<path d="M71.2 39.9003C71.5 39.9003 71.7 39.6003 71.6 39.4003C71.5 38.9003 71.2 38.7003 70.9 39.0003C70.5 39.4003 70.9 39.9003 71.2 39.9003Z" fill="#626366"/>
<path d="M78.1 42.9006C77.7 43.3006 76.8 44.2006 76.6 44.2006C76.4 44.2006 76.5 43.6006 76.5 43.1006C76.5 42.7006 76.5 41.8006 76 41.7006C75.4 41.7006 74.3 42.9006 74 42.9006C73.7 43.0006 74.5 42.3006 73.6 41.6006C73.4 41.4006 73.1 41.8006 72.3 42.4006L72.1 42.5006C71.7 43.0006 70.3 44.2006 70.2 44.0006C70.1 43.8006 70.6 42.8006 70.6 42.5006C70.7 42.2006 70.8 41.8006 70.4 41.6006C70.1 41.4006 69.8 41.7006 69.6 41.9006C69.5 42.0006 68.5 42.8006 68.2 42.9006C67.8 43.2006 67.2 43.7006 67.1 43.7006C67 43.6006 67.2 43.6006 67.5 43.0006C67.8 42.4006 67.7 41.6006 67.4 41.5006C66.7 41.1006 65.9 42.0006 65.5 42.3006C65.2 42.6006 64.9 42.9006 64.9 42.9006C64.8 43.0006 65 42.3006 65 42.0006C65.1 41.7006 64.9 41.5006 64.7 41.3006C64.5 41.1006 64.4 41.2006 64.2 41.5006C64.1 41.7006 63.7 42.1006 63.3 42.4006C62.9 42.7006 61.7 43.7006 61.5 43.7006C61.3 43.7006 61.6 43.5006 62 42.8006C62.4 42.1006 62.1 41.7006 61.9 41.5006C61.8 41.3006 61.3 41.2006 60.7 41.6006C60.1 42.0006 59.4 42.8006 59.3 42.8006C59.2 42.8006 59.4 42.1006 59.4 41.8006C59.5 41.5006 59.2 41.3006 59.1 41.2006C59 41.1006 58.8 41.2006 58.6 41.5006C58.4 41.8006 57.7 42.3006 57.5 42.5006C56.8 43.1006 56.1 44.0006 55.9 43.8006C55.8 43.7006 55.7 43.2006 56.3 42.3006C56.4 42.1006 56.5 41.6006 56.2 41.5006C55.9 41.4006 55.7 42.0006 55.5 42.0006C55.3 42.0006 55.6 41.6006 55.2 41.4006C54.9 41.3006 54.3 41.3006 52.7 42.8006C52.3 43.1006 51.6 44.6006 52.5 45.0006C53.4 45.4006 54.2 43.8006 55.2 43.2006C55.3 43.1006 55.1 43.6006 55.2 44.0006C55.3 44.4006 55.8 44.8006 56.5 44.1006C57.2 43.4006 58.2 42.4006 58.4 42.3006C58.5 42.2006 58.1 43.9006 57.8 44.4006C57.6 44.8006 56.3 46.5006 56 47.3006C55.7 48.1006 56.1 48.7006 56.2 48.9006C56.3 49.1006 56.7 49.0006 57 48.5006C57.3 48.0006 57.7 46.8006 57.9 46.4006C58 46.0006 58.4 44.7006 58.6 44.5006C58.7 44.3006 58.8 44.9006 59.1 44.9006C59.6 45.0006 60.4 44.6006 61 44.2006C61.7 43.8006 62.8 42.9006 63.1 42.7006C63.4 42.5006 63.7 42.0006 63.8 42.2006C63.8 42.4006 63.4 43.6006 63.3 44.1006C63.2 44.6006 63 44.6006 62.6 45.1006C62.3 45.6006 61.6 46.8006 61.3 47.4006C61.1 48.0006 61.4 49.0006 61.8 48.9006C62.3 48.8006 62.7 47.5006 62.9 47.2006C63 46.8006 63.8 44.6006 63.9 44.5006C64 44.4006 64.1 44.7006 64.4 44.9006C64.6 45.0006 65.6 44.7006 66.2 44.4006C66.8 44.1006 68.6 42.6006 68.8 42.5006C69 42.4006 69.3 42.1006 69.4 42.3006C69.5 42.6006 68.6 43.8006 69.1 44.6006C69.5 45.3006 71.3 43.5006 71.6 43.2006C71.9 43.0006 72.8 42.2006 72.7 42.4006C72.6 42.6006 72.5 42.9006 72.2 43.3006C71.9 43.7006 71.6 44.4006 72.1 44.8006C72.3 44.9006 73.3 43.8006 73.8 43.4006C74.3 43.0006 75 42.2006 75.1 42.5006C75.2 42.8006 74.9 44.3006 75.5 44.7006C76.1 45.1006 76.7 44.4006 77.2 43.9006C78.2 43.6006 78.6 42.6006 78.1 42.9006ZM53.2 44.4006C52.8 44.2006 53.3 43.6006 54 42.9006C54.7 42.2006 55.4 42.3006 55.6 42.4006C55.9 42.4006 53.5 44.6006 53.2 44.4006ZM56.7 48.2006C56.5 48.3006 57 46.2006 57.8 45.5006C57.9 45.4006 57.3 47.8006 56.7 48.2006ZM60.1 44.0006C60 43.7006 59.7 43.8006 59.5 43.9006C59.3 43.9006 59.1 44.2006 59.1 44.1006C59.1 43.5006 60.1 42.7006 60.5 42.3006C60.9 41.9006 61.4 41.7006 61.5 42.2006C61.6 42.6006 60.3 44.3006 60.1 44.0006ZM62.1 48.2006C61.9 48.3006 62.4 46.2006 63.2 45.5006C63.3 45.4006 62.7 47.8006 62.1 48.2006ZM65.6 44.0006C65.5 43.7006 65.2 43.8006 65 43.9006C64.8 43.9006 64.6 44.2006 64.6 44.1006C64.7 43.5006 65.6 42.7006 66 42.3006C66.4 41.9006 66.9 41.7006 67 42.2006C67 42.6006 65.7 44.3006 65.6 44.0006Z" fill="#626366"/>
<path d="M52.6 42.6002C52.5 42.5002 52.1 42.8002 51.9 43.0002C51.7 43.2002 51.1 43.8002 51 43.8002C50.9 43.8002 50.9 43.6002 50.9 43.4002C50.9 43.2002 51.1 42.7002 51.2 42.2002C51.3 41.8002 51.3 41.6002 51 41.5002C50.6 41.3002 50.2 41.4002 49.6 41.8002C49 42.3002 48.3 43.2002 48.3 43.2002C48.2 43.2002 48.3 43.1002 48.4 42.9002C48.5 42.7002 48.8 41.8002 49.2 41.3002C49.6 40.8002 50.5 39.5002 50.7 38.8002C50.9 38.1002 51 37.9002 51 37.5002C51 37.1002 50.7 36.8002 50.5 36.9002C50.3 37.0002 49.6 38.4002 49.3 38.9002C49.1 39.3002 48.2 41.4002 48.1 41.6002C48 41.8002 47.5 42.3002 47.3 42.5002C47.1 42.7002 47 42.8002 47 43.1002C47 43.4002 47.3 43.2002 47.4 43.1002C47.4 43.3002 47.2 43.7002 47 44.1002C46.8 44.6002 47.2 44.9002 47.3 44.8002C47.4 44.7002 47.7 44.3002 48.1 43.9002C48.5 43.4002 49.5 42.6002 49.8 42.4002C50 42.2002 50.3 42.1002 50.3 42.3002C50.3 42.6002 50.3 42.8002 50.1 43.5002C50 44.3002 50.2 44.5002 50.5 44.6002C50.8 44.8002 51.2 44.3002 51.4 44.1002C51.6 44.0002 51.9 43.6002 52.2 43.4002C52.5 43.4002 52.7 42.7002 52.6 42.6002Z" fill="#626366"/>
<path d="M82.6 42.3999C82.5 42.4999 82.2 42.7999 81.3 43.3999C80.4 44.0999 79.7 44.1999 79.3 44.2999C78.9 44.2999 79.1 43.8999 79.1 43.7999C79.3 43.6999 79.7 43.2999 80.1 43.0999C80.4 42.8999 81.4 42.1999 81.5 41.9999C81.6 41.7999 81.7 41.2999 80.7 41.2999C79.3 41.2999 78.7 42.7999 78.6 43.2999C78.6 43.4999 78.4 43.3999 78.4 43.5999C78.3 43.7999 78.4 43.8999 78.4 43.9999C78.5 43.9999 78.5 43.9999 78.6 44.2999C78.7 44.5999 79.1 45.1999 79.9 44.8999C80.7 44.5999 81.7 43.7999 82 43.5999C82.7 42.9999 83.5 41.8999 83.6 41.9999C83.7 42.0999 83.8 42.6999 83.5 43.3999C83.1 44.0999 83 44.2999 82.8 44.2999C82.6 44.2999 82.6 44.0999 82.2 44.1999C81.8 44.2999 81.7 44.5999 81.9 44.8999C82.1 45.1999 82.5 45.5999 83.4 44.9999C84.3 44.3999 85.3 43.6999 85.7 43.2999C86 43.0999 86.9 41.9999 87 42.0999C87.1 42.1999 87.3 42.7999 86.9 43.4999C86.5 44.1999 86.4 44.3999 86.2 44.3999C86 44.3999 86 44.1999 85.6 44.2999C85.2 44.3999 85.1 44.6999 85.3 44.9999C85.5 45.2999 85.9 45.6999 86.8 45.0999C87.7 44.4999 88.7 43.7999 89.1 43.3999C89.7 42.8999 89.7 42.6999 89.5 42.4999C89.4 42.2999 89.1 42.6999 89.1 42.6999C88.7 43.0999 88.1 43.5999 87.8 43.6999C87.5 43.8999 87.8 43.3999 87.8 42.8999C87.9 42.2999 87.5 41.2999 87.2 41.0999C86.9 40.8999 86.8 41.0999 86.7 41.4999C86.6 41.8999 86.1 42.4999 86 42.5999C85.7 42.8999 84.5 43.6999 84.5 43.6999C84.2 43.8999 84.5 43.3999 84.5 42.8999C84.6 42.2999 84.2 41.2999 83.9 41.0999C83.6 40.8999 83.5 41.0999 83.4 41.4999C83.2 41.7999 82.8 42.2999 82.6 42.3999ZM80.1 42.0999C80.5 41.8999 80.8 41.7999 80.9 41.8999C81 41.9999 80.6 42.1999 80.4 42.3999C80.2 42.5999 79.7 43.0999 79.6 42.9999C79.4 42.8999 79.8 42.2999 80.1 42.0999Z" fill="#626366"/>
<path d="M25.4 42.9005C25 43.3005 24.1 44.2005 23.9 44.2005C23.7 44.2005 23.8 43.6005 23.8 43.1005C23.8 42.7005 23.8 41.8005 23.3 41.7005C22.7 41.7005 21.6 42.9005 21.3 42.9005C21 43.0005 21.8 42.3005 20.9 41.6005C20.7 41.4005 20.4 41.8005 19.6 42.4005C18.9 43.0005 18.2 43.9005 18 43.7005C17.9 43.6005 17.8 43.1005 18.4 42.2005C18.5 42.0005 18.6 41.5005 18.3 41.4005C18 41.3005 17.8 41.9005 17.6 41.9005C17.4 41.9005 17.7 41.5005 17.3 41.3005C17 41.2005 16.4 41.2005 14.8 42.7005C14.4 43.0005 13.7 44.5005 14.6 44.9005C15.5 45.3005 16.3 43.7005 17.3 43.1005C17.4 43.0005 17.2 43.5005 17.3 43.9005C17.5 44.3005 17.9 44.7005 18.6 44.0005C19.3 43.3005 20.5 42.3005 20.4 42.4005C20.3 42.6005 20.2 42.9005 19.9 43.3005C19.6 43.7005 19.3 44.4005 19.8 44.8005C20 44.9005 21 43.8005 21.5 43.4005C22 43.0005 22.7 42.2005 22.8 42.5005C22.9 42.8005 22.6 44.3005 23.2 44.7005C23.8 45.1005 24.4 44.4005 24.9 43.9005C25.5 43.6005 25.9 42.6005 25.4 42.9005ZM15 44.4005C14.6 44.2005 15.1 43.6005 15.8 42.9005C16.5 42.2005 17.2 42.3005 17.4 42.4005C17.7 42.4005 15.3 44.6005 15 44.4005Z" fill="#626366"/>
<path d="M7.09998 39.9003C7.39998 39.9003 7.59998 39.6003 7.49998 39.4003C7.39998 38.9003 7.09998 38.7003 6.79998 39.0003C6.49998 39.4003 6.79998 39.9003 7.09998 39.9003Z" fill="#626366"/>
<path d="M14 42.9007C13.6 43.3007 12.7 44.2007 12.5 44.2007C12.3 44.2007 12.4 43.6007 12.4 43.1007C12.4 42.7007 12.4 41.8007 11.9 41.7007C11.3 41.7007 10.2 42.9007 9.89999 42.9007C9.59999 43.0007 10.4 42.3007 9.49999 41.6007C9.29999 41.4007 8.99999 41.8007 8.19999 42.4007L7.99999 42.5007C7.49999 43.0007 6.09999 44.2007 5.99999 44.0007C5.89999 43.8007 6.39999 42.8007 6.39999 42.5007C6.49999 42.2007 6.59999 41.8007 6.19999 41.6007C5.89999 41.4007 5.59999 41.7007 5.39999 41.9007C5.29999 42.0007 4.29999 42.8007 3.99999 42.9007C3.59999 43.2007 2.79999 43.9007 2.69999 43.9007C2.59999 43.8007 3.19999 42.4007 3.59999 41.6007C3.89999 40.8007 4.39999 40.2007 4.79999 39.3007C5.19999 38.3007 5.09999 37.3007 4.79999 37.1007C4.39999 37.0007 4.19999 38.0007 3.89999 38.7007C3.59999 39.4007 3.19999 41.0007 2.89999 41.4007C2.59999 41.7007 1.49999 42.9007 1.29999 43.2007C1.09999 43.5007 1.19999 43.8007 1.29999 43.8007C1.49999 43.8007 1.89999 43.0007 2.19999 43.0007C2.39999 42.9007 1.79999 44.2007 1.49999 44.4007C1.39999 44.5007 1.29999 44.6007 1.49999 44.7007C1.69999 44.7007 1.59999 44.8007 1.39999 45.0007C1.19999 45.2007 0.499995 47.7007 0.299995 48.3007C0.0999946 48.9007 -0.200005 49.9007 0.299995 49.9007C0.799995 50.0007 2.39999 47.9007 2.99999 46.8007C3.69999 45.7007 3.09999 45.1007 2.89999 44.8007C2.69999 44.5007 2.49999 44.5007 2.69999 44.3007C3.29999 43.8007 4.79999 42.6007 4.99999 42.5007C5.19999 42.4007 5.49999 42.1007 5.59999 42.3007C5.69999 42.6007 4.79999 43.8007 5.29999 44.6007C5.69999 45.3007 7.49999 43.5007 7.79999 43.2007C8.09999 43.0007 8.99999 42.2007 8.89999 42.4007C8.79999 42.6007 8.69999 42.9007 8.39999 43.3007C8.09999 43.7007 7.79999 44.4007 8.29999 44.8007C8.49999 44.9007 9.49999 43.8007 9.99999 43.4007C10.5 43.0007 11.2 42.2007 11.3 42.5007C11.4 42.8007 11.1 44.3007 11.7 44.7007C12.3 45.1007 12.9 44.4007 13.4 43.9007C14.1 43.6007 14.4 42.6007 14 42.9007ZM2.59999 46.2007C2.39999 46.9007 1.89999 48.2007 0.799995 49.1007C0.699995 49.2007 0.999995 48.2007 1.09999 47.8007C1.19999 47.4007 1.89999 44.8007 2.19999 45.0007C2.49999 45.1007 2.89999 45.5007 2.59999 46.2007Z" fill="#626366"/>
<path d="M32.5 39.9003C32.8 39.9003 33 39.6003 32.9 39.4003C32.8 38.9003 32.5 38.7003 32.2 39.0003C31.9 39.4003 32.2 39.9003 32.5 39.9003Z" fill="#626366"/>
<path d="M43.3 41.7002C43.2 41.6002 43.1 41.9002 42.9 41.9002C42.8 41.9002 42.9 41.5002 42.7 41.5002C42.5 41.4002 41.4 41.8002 40.8 42.2002C40.2 42.5002 39.8 43.1002 39.5 43.3002C39.6 43.0002 39.6 42.8002 39.4 43.0002C39 43.4002 38.1 44.3002 37.9 44.3002C37.7 44.3002 37.8 43.7002 37.8 43.2002C37.8 42.8002 37.8 41.9002 37.3 41.8002C36.7 41.8002 35.6 43.0002 35.3 43.0002C35 43.1002 35.8 42.4002 34.9 41.7002C34.7 41.5002 34.4 41.9002 33.6 42.5002L33.4 42.6002C33 43.0002 31.6 44.2002 31.5 44.0002C31.4 43.8002 31.9 42.8002 31.9 42.5002C32 42.2002 32.1 41.8002 31.7 41.6002C31.4 41.4002 31.1 41.7002 30.9 41.9002C30.8 42.0002 29.8 42.8002 29.5 42.9002C29.1 43.2002 28.5 43.6002 28.2 43.8002C28.1 43.9002 27.6 44.2002 27.4 44.3002C26.8 44.5002 26.2 44.7002 26.4 44.1002C26.5 43.5002 26.7 43.2002 27.1 42.7002C27.5 42.3002 28.2 41.8002 28.6 42.2002C28.7 42.3002 29.2 42.0002 29.1 41.6002C28.9 41.3002 28.8 41.2002 28.4 41.2002C28 41.3002 26.9 41.6002 26.3 42.6002C25.7 43.6002 25.5 44.3002 26.4 44.9002C26.6 45.0002 27.3 45.0002 28.4 44.4002C29.5 43.8002 30.5 42.7002 30.7 42.6002C30.9 42.5002 31.2 42.2002 31.3 42.4002C31.4 42.7002 30.5 43.9002 31 44.7002C31.4 45.4002 33.2 43.6002 33.5 43.3002C33.8 43.1002 34.7 42.3002 34.6 42.5002C34.5 42.7002 34.4 43.0002 34.1 43.4002C33.8 43.8002 33.5 44.5002 34 44.9002C34.2 45.0002 35.2 43.9002 35.7 43.5002C36.2 43.1002 36.9 42.3002 37 42.6002C37.1 42.9002 36.8 44.4002 37.4 44.8002C38 45.1002 38.5 44.6002 39 44.1002C39 44.4002 39.3 44.0002 39.3 44.1002C39.4 44.2002 39.3 44.9002 39.9 44.8002C40.3 44.8002 41.5 43.8002 41.8 43.5002C42 43.3002 42.3 43.0002 42.5 42.9002C42.6 42.9002 42.1 44.2002 41.9 44.6002C41.7 44.9002 41 44.4002 39.4 46.1002C38.9 46.7002 38.2 48.5002 39 48.8002C39.8 49.1002 41.6 46.3002 41.8 45.9002C42 45.5002 42.1 45.3002 42.2 45.3002C42.4 45.4002 42.9 45.6002 42.9 45.1002C42.9 44.9002 42.7 44.6002 42.5 44.5002C42.6 44.1002 43 42.8002 43.2 42.5002C43.4 42.5002 43.6 41.9002 43.3 41.7002ZM39.9 44.3002C39.7 43.9002 42.1 42.1002 42.4 42.4002C42.6 42.7002 40.1 44.7002 39.9 44.3002ZM39.1 48.1002C38.9 48.2002 39.1 47.3002 39.5 46.7002C40 46.1002 40.8 45.4002 41.4 45.5002C41.6 45.6002 40.3 47.7002 39.1 48.1002Z" fill="#626366"/>
<path d="M89.4 31.5996H0V32.8996H89.4V31.5996Z" fill="#EC1C24"/>
<path d="M32.7 0H27.2V21.8H32.7V0Z" fill="#231F20"/>
<path d="M55.4 10.9C55.4 12.3 55.1 13.7 54.6 15.1C54 16.5 53.3 17.6 52.3 18.6C51.3 19.6 50.1 20.4 48.8 21C47.5 21.6 46 21.9 44.6 21.9H34.9V8.2H40.4V16.3H44.7C45.7 16.3 46.4 16.1 47.1 15.8C47.7 15.4 48.2 15.1 48.5 14.8C48.8 14.5 49.2 14 49.6 13.4C50 12.8 50.2 12 50.2 11C50.2 10 50 9.1 49.5 8.3C49.1 7.5 48.4 6.8 47.5 6.3C46.6 5.8 45.7 5.5 44.7 5.5H35V0H44.7C46.2 0 47.6 0.3 48.9 0.8C50.2 1.3 51.4 2.1 52.4 3.2C53.4 4.2 54.2 5.3 54.8 6.6C55.1 8 55.4 9.4 55.4 10.9Z" fill="#231F20"/>
<path d="M57.5 21.8V0H63V16.3H72V21.8H57.5Z" fill="#231F20"/>
<path d="M85 21.8C83.5 21.8 82.3 21.6 81.4 21.2C80.4 20.8 79.6 20.4 79 20C78.4 19.6 77.7 19 77 18.3C76.2 17.6 75.6 16.5 75 15.2C74.4 13.9 74.1 12.5 74.1 11C74.1 10.3 74.2 9.6 74.3 8.9C74.4 8.2 74.7 7.4 75.1 6.4C75.5 5.4 76.2 4.4 77.3 3.4C78.3 2.4 79.5 1.6 80.8 1C82.2 0.3 83.6 0 85 0C85.9 0 86.6 0.1 87.2 0.2C87.9 0.3 88.6 0.6 89.4 0.9V7.4C88.3 6.1 86.8 5.4 85 5.4C84.1 5.4 83.2 5.6 82.3 6.2C81.4 6.7 80.8 7.3 80.3 8.2C79.8 9 79.6 9.9 79.6 10.9C79.6 11.4 79.7 11.9 79.8 12.3C79.9 12.7 80.1 13.3 80.5 13.9C80.9 14.5 81.5 15.1 82.3 15.6C83.2 16.1 84.1 16.3 85 16.3C86 16.3 86.8 16.1 87.5 15.7C88.3 15.3 88.9 14.8 89.4 14V20.8C89 21 88.7 21.1 88.3 21.2C88 21.3 87.6 21.4 87 21.5C86.5 21.7 85.8 21.8 85 21.8Z" fill="#231F20"/>
<path d="M16.1 5.59961H0V21.6996H16.1V5.59961Z" fill="#EC1C24"/>
<path d="M19 2.7998H8.20001V4.1998H17.6V13.5998H19V2.7998Z" fill="#231F20"/>
<path d="M21.8 0H13.7V1.4H20.4V8.1H21.8V0Z" fill="#231F20"/>
<path d="M28.5 23.7998H29L30.4 27.5998H29.9L29.5 26.4998H28L27.6 27.5998H27.1L28.5 23.7998ZM28.1 26.1998H29.3L28.7 24.5998C28.7 24.5998 28.7 24.4998 28.7 24.3998C28.7 24.2998 28.7 24.2998 28.7 24.1998C28.7 24.3998 28.7 24.4998 28.6 24.5998L28.1 26.1998Z" fill="#231F20"/>
<path d="M30.9 26.6002C30.9 26.9002 31 27.0002 31.1 27.1002C31.2 27.2002 31.4 27.3002 31.7 27.3002C31.9 27.3002 32.1 27.3002 32.2 27.2002C32.3 27.1002 32.4 27.0002 32.4 26.8002C32.4 26.7002 32.4 26.6002 32.3 26.5002C32.2 26.4002 32.1 26.4002 31.9 26.4002L31.6 26.3002C31.5 26.3002 31.4 26.3002 31.3 26.2002C31.2 26.2002 31.1 26.2002 31.1 26.1002C31 26.1002 30.8 26.0002 30.8 25.9002C30.7 25.8002 30.7 25.6002 30.7 25.5002C30.7 25.3002 30.8 25.1002 31 24.9002C31.2 24.8002 31.4 24.7002 31.8 24.7002C32.2 24.7002 32.4 24.8002 32.6 24.9002C32.8 25.1002 32.9 25.3002 32.9 25.6002H32.5C32.5 25.2002 32.3 25.0002 31.8 25.0002C31.6 25.0002 31.5 25.0002 31.3 25.1002C31.2 25.2002 31.1 25.3002 31.1 25.4002C31.1 25.5002 31.1 25.5002 31.1 25.6002C31.1 25.7002 31.2 25.7002 31.2 25.7002H31.3H31.4C31.4 25.7002 31.5 25.7002 31.6 25.7002C31.7 25.7002 31.8 25.7002 31.9 25.7002H32C32.1 25.7002 32.1 25.7002 32.2 25.7002H32.3H32.4C32.4 25.7002 32.5 25.7002 32.5 25.8002C32.6 25.9002 32.7 25.9002 32.8 26.0002C32.9 26.1002 32.9 26.2002 32.9 26.4002C32.9 26.5002 32.9 26.7002 32.8 26.8002C32.7 26.9002 32.7 27.0002 32.6 27.1002C32.5 27.2002 32.4 27.2002 32.2 27.3002C32.1 27.3002 31.9 27.4002 31.7 27.4002C31.5 27.4002 31.4 27.4002 31.2 27.3002C31.1 27.3002 30.9 27.2002 30.8 27.1002C30.7 27.0002 30.6 26.9002 30.6 26.8002C30.5 26.7002 30.5 26.6002 30.5 26.4002C30.5 26.4002 30.5 26.4002 30.5 26.3002C30.5 26.3002 30.5 26.3002 30.5 26.2002H30.9V26.6002Z" fill="#231F20"/>
<path d="M33.5 26.6002C33.5 26.9002 33.6 27.0002 33.7 27.1002C33.8 27.2002 34 27.3002 34.3 27.3002C34.5 27.3002 34.7 27.3002 34.8 27.2002C34.9 27.1002 35 27.0002 35 26.8002C35 26.7002 35 26.6002 34.9 26.5002C34.8 26.4002 34.7 26.4002 34.5 26.4002L34.2 26.3002C34.1 26.3002 34 26.3002 33.9 26.2002C33.8 26.2002 33.7 26.2002 33.7 26.1002C33.6 26.1002 33.4 26.0002 33.4 25.9002C33.3 25.8002 33.3 25.6002 33.3 25.5002C33.3 25.3002 33.4 25.1002 33.6 24.9002C33.8 24.8002 34 24.7002 34.4 24.7002C34.8 24.7002 35 24.8002 35.2 24.9002C35.4 25.1002 35.5 25.3002 35.5 25.6002H35.1C35.1 25.2002 34.9 25.0002 34.4 25.0002C34.2 25.0002 34.1 25.0002 33.9 25.1002C33.8 25.2002 33.7 25.3002 33.7 25.4002C33.7 25.5002 33.7 25.5002 33.7 25.6002C33.7 25.7002 33.8 25.7002 33.8 25.7002H33.9H34C34 25.7002 34.1 25.7002 34.2 25.7002C34.3 25.7002 34.4 25.7002 34.5 25.7002H34.6C34.7 25.7002 34.7 25.7002 34.8 25.7002H34.9H35C35 25.7002 35.1 25.7002 35.1 25.8002C35.2 25.9002 35.3 25.9002 35.4 26.0002C35.5 26.1002 35.5 26.2002 35.5 26.4002C35.5 26.5002 35.5 26.7002 35.4 26.8002C35.3 26.9002 35.3 27.0002 35.2 27.1002C35.1 27.2002 35 27.2002 34.8 27.3002C34.7 27.3002 34.5 27.4002 34.3 27.4002C34.1 27.4002 34 27.4002 33.8 27.3002C33.6 27.2002 33.5 27.2002 33.4 27.1002C33.3 27.0002 33.2 26.9002 33.2 26.8002C33.1 26.7002 33.1 26.6002 33.1 26.4002C33.1 26.4002 33.1 26.4002 33.1 26.3002C33.1 26.3002 33.1 26.3002 33.1 26.2002H33.5V26.6002Z" fill="#231F20"/>
<path d="M36.2 26.2996C36.2 26.4996 36.2 26.5996 36.3 26.6996C36.3 26.7996 36.4 26.8996 36.5 26.9996C36.6 27.0996 36.6 27.1996 36.7 27.1996C36.8 27.1996 36.9 27.2996 37 27.2996C37.2 27.2996 37.3 27.1996 37.5 27.0996C37.6 26.9996 37.7 26.7996 37.8 26.5996H38.2C38.1 26.8996 38 27.1996 37.8 27.2996C37.6 27.4996 37.3 27.5996 37 27.5996C36.8 27.5996 36.6 27.5996 36.5 27.4996C36.4 27.3996 36.2 27.2996 36.1 27.1996C36 27.0996 35.9 26.8996 35.9 26.6996C35.8 26.4996 35.8 26.2996 35.8 26.0996C35.8 25.8996 35.8 25.6996 35.9 25.4996C36 25.2996 36 25.1996 36.1 24.9996C36.2 24.8996 36.3 24.7996 36.5 24.6996C36.6 24.5996 36.8 24.5996 37 24.5996C37.2 24.5996 37.3 24.5996 37.5 24.6996C37.6 24.7996 37.8 24.8996 37.9 24.9996C38 25.0996 38.1 25.2996 38.1 25.3996C38.2 25.5996 38.2 25.7996 38.2 25.9996C38.2 25.9996 38.2 25.9996 38.2 26.0996C38.2 26.1996 38.2 26.0996 38.2 26.1996H36.2V26.2996ZM36.5 25.2996C36.4 25.4996 36.3 25.6996 36.2 25.9996H37.7C37.7 25.6996 37.6 25.4996 37.5 25.2996C37.4 25.0996 37.2 25.0996 37 25.0996C36.8 24.9996 36.6 25.0996 36.5 25.2996Z" fill="#231F20"/>
<path d="M38.4 24.7996H38.8V24.0996H39.2V24.7996H39.8V25.0996H39.2V26.8996C39.2 26.9996 39.2 27.0996 39.3 27.1996C39.3 27.2996 39.4 27.2996 39.5 27.2996C39.6 27.2996 39.6 27.2996 39.6 27.2996C39.6 27.2996 39.7 27.2996 39.7 27.1996V27.4996C39.6 27.4996 39.6 27.4996 39.5 27.4996C39.4 27.4996 39.4 27.4996 39.3 27.4996C39.1 27.4996 38.9 27.3996 38.8 27.2996C38.7 27.1996 38.7 27.1996 38.7 27.0996C38.7 26.9996 38.7 26.8996 38.7 26.7996V24.9996H38.3V24.7996H38.4Z" fill="#231F20"/>
<path d="M41.6 23.7998H42.2L43.4 26.6998C43.4 26.6998 43.4 26.7998 43.4 26.8998C43.4 26.9998 43.4 26.9998 43.4 27.0998C43.4 26.9998 43.4 26.8998 43.4 26.8998C43.4 26.7998 43.4 26.7998 43.4 26.6998L44.6 23.7998H45.2V27.5998H44.8V24.7998C44.8 24.7998 44.8 24.7998 44.8 24.6998C44.8 24.6998 44.8 24.5998 44.8 24.4998C44.8 24.4998 44.8 24.4998 44.8 24.3998V24.2998C44.8 24.3998 44.8 24.4998 44.7 24.4998C44.7 24.5998 44.7 24.5998 44.6 24.6998L43.5 27.4998H43.2L42.1 24.6998C42.1 24.6998 42.1 24.5998 42 24.4998C42 24.3998 42 24.3998 41.9 24.2998V24.3998V24.4998C41.9 24.5998 41.9 24.5998 41.9 24.6998C41.9 24.7998 41.9 24.7998 41.9 24.7998V27.5998H41.5V23.7998H41.6Z" fill="#231F20"/>
<path d="M47.7 24.8002H48.1V27.6002H47.7V27.1002C47.6 27.5002 47.3 27.6002 46.9 27.6002C46.7 27.6002 46.6 27.6002 46.4 27.5002C46.3 27.4002 46.1 27.3002 46 27.2002C45.9 27.1002 45.7999 26.9002 45.7999 26.7002C45.6999 26.6002 45.7 26.4002 45.7 26.2002C45.7 26.0002 45.6999 25.8002 45.7999 25.6002C45.8999 25.4002 45.9 25.3002 46 25.1002C46.1 25.0002 46.2 24.9002 46.4 24.8002C46.5 24.7002 46.7 24.7002 46.9 24.7002C47.3 24.7002 47.6 24.9002 47.7 25.3002V24.8002ZM46.4 25.4002C46.3 25.6002 46.2 25.9002 46.2 26.3002C46.2 26.5002 46.1999 26.6002 46.2999 26.8002C46.2999 26.9002 46.4 27.1002 46.5 27.1002C46.6 27.2002 46.6 27.3002 46.7 27.3002C46.8 27.4002 46.9 27.4002 47 27.4002C47.2 27.4002 47.4 27.3002 47.6 27.1002C47.7 26.9002 47.7999 26.6002 47.7999 26.2002C47.7999 25.8002 47.7 25.6002 47.6 25.4002C47.5 25.2002 47.3 25.1002 47 25.1002C46.7 25.1002 46.5 25.2002 46.4 25.4002Z" fill="#231F20"/>
<path d="M48.8 24.8002H49.2V25.3002C49.4 24.9002 49.7 24.7002 50 24.7002C50.1 24.7002 50.2 24.7002 50.4 24.8002C50.5 24.8002 50.6 24.9002 50.7 25.0002C50.8 25.1002 50.8 25.2002 50.9 25.3002C50.9 25.4002 50.9 25.5002 50.9 25.7002V27.6002H50.5V25.8002C50.5 25.6002 50.5 25.4002 50.4 25.3002C50.3 25.2002 50.2 25.1002 50 25.1002C49.8 25.1002 49.7 25.2002 49.6 25.3002C49.5 25.4002 49.4 25.5002 49.3 25.7002V27.6002H48.9V24.8002H48.8Z" fill="#231F20"/>
<path d="M53.5 24.7996H53.9V27.5996H53.5V27.0996C53.4 27.4996 53.1 27.5996 52.7 27.5996C52.5 27.5996 52.4 27.5996 52.2 27.4996C52.1 27.3996 51.9 27.2996 51.8 27.1996C51.7 27.0996 51.6 26.8996 51.6 26.6996C51.5 26.4996 51.5 26.2996 51.5 26.0996C51.5 25.8996 51.5 25.6996 51.6 25.4996C51.7 25.2996 51.7 25.1996 51.8 24.9996C51.9 24.8996 52 24.7996 52.2 24.6996C52.3 24.5996 52.5 24.5996 52.7 24.5996C53.1 24.5996 53.4 24.7996 53.5 25.1996V24.7996ZM52.2 25.3996C52.1 25.5996 52 25.8996 52 26.2996C52 26.4996 52 26.5996 52.1 26.7996C52.1 26.8996 52.2 27.0996 52.3 27.0996C52.4 27.1996 52.4 27.2996 52.5 27.2996C52.6 27.3996 52.7 27.3996 52.8 27.3996C53 27.3996 53.2 27.2996 53.4 27.0996C53.5 26.8996 53.6 26.5996 53.6 26.1996C53.6 25.7996 53.5 25.5996 53.4 25.3996C53.3 25.1996 53.1 25.0996 52.8 25.0996C52.5 25.0996 52.3 25.1996 52.2 25.3996Z" fill="#231F20"/>
<path d="M56.5 24.7998H56.9V27.4998C56.9 27.8998 56.8 28.0998 56.6 28.2998C56.4 28.4998 56.1 28.5998 55.7 28.5998C55.3 28.5998 55 28.4998 54.9 28.3998C54.7 28.2998 54.6 27.9998 54.6 27.7998H55C55 27.9998 55.1 28.0998 55.2 28.1998C55.3 28.2998 55.5 28.2998 55.7 28.2998C56.2 28.2998 56.4 28.0998 56.4 27.5998V27.1998C56.3 27.3998 56.2 27.4998 56.1 27.5998C56 27.6998 55.8 27.6998 55.6 27.6998C55.4 27.6998 55.3 27.6998 55.1 27.5998C55 27.4998 54.8 27.3998 54.7 27.2998C54.6 27.1998 54.5 26.9998 54.5 26.8998C54.4 26.6998 54.4 26.4998 54.4 26.2998C54.4 26.0998 54.4 25.8998 54.5 25.6998C54.6 25.4998 54.6 25.3998 54.7 25.1998C54.8 25.0998 54.9 24.9998 55.1 24.8998C55.2 24.7998 55.4 24.7998 55.6 24.7998C56 24.7998 56.3 24.9998 56.4 25.2998V24.7998H56.5ZM55.1 25.3998C55 25.5998 54.9 25.8998 54.9 26.1998C54.9 26.5998 55 26.8998 55.1 27.0998C55.2 27.2998 55.4 27.3998 55.7 27.3998C55.9 27.3998 56.1 27.2998 56.3 27.0998C56.4 26.8998 56.5 26.5998 56.5 26.2998C56.5 25.8998 56.4 25.5998 56.3 25.3998C56.2 25.1998 56 25.0998 55.7 25.0998C55.5 25.0998 55.3 25.1998 55.1 25.3998Z" fill="#231F20"/>
<path d="M57.9 26.2996C57.9 26.4996 57.9 26.5996 58 26.6996C58 26.7996 58.1 26.8996 58.2 26.9996C58.3 27.0996 58.3 27.1996 58.4 27.1996C58.5 27.1996 58.6 27.2996 58.7 27.2996C58.9 27.2996 59 27.1996 59.2 27.0996C59.3 26.9996 59.4 26.7996 59.5 26.5996H59.9C59.8 26.8996 59.7 27.1996 59.5 27.2996C59.3 27.4996 59 27.5996 58.7 27.5996C58.5 27.5996 58.3 27.5996 58.2 27.4996C58.1 27.3996 57.9 27.2996 57.8 27.1996C57.7 27.0996 57.6 26.8996 57.6 26.6996C57.5 26.4996 57.5 26.2996 57.5 26.0996C57.5 25.8996 57.5 25.6996 57.6 25.4996C57.7 25.2996 57.7 25.1996 57.8 24.9996C57.9 24.8996 58 24.7996 58.2 24.6996C58.3 24.5996 58.5 24.5996 58.7 24.5996C58.9 24.5996 59 24.5996 59.2 24.6996C59.3 24.7996 59.5 24.8996 59.6 24.9996C59.7 25.0996 59.8 25.2996 59.8 25.3996C59.9 25.5996 59.9 25.7996 59.9 25.9996C59.9 25.9996 59.9 25.9996 59.9 26.0996C59.9 26.1996 59.9 26.0996 59.9 26.1996H57.9V26.2996ZM58.1 25.2996C58 25.4996 57.9 25.6996 57.8 25.9996H59.3C59.3 25.6996 59.2 25.4996 59.1 25.2996C59 25.0996 58.8 25.0996 58.6 25.0996C58.4 24.9996 58.3 25.0996 58.1 25.2996Z" fill="#231F20"/>
<path d="M60.4 24.7998H60.8V25.2998C60.9 25.0998 61 24.9998 61.2 24.8998C61.3 24.7998 61.5 24.7998 61.7 24.7998C61.9 24.7998 62.1 24.8998 62.2 24.9998C62.3 25.0998 62.4 25.2998 62.5 25.4998C62.7 25.0998 63 24.8998 63.4 24.8998C63.5 24.8998 63.7 24.8998 63.8 24.9998C63.9 25.0998 64 25.0998 64.1 25.2998C64.2 25.3998 64.2 25.4998 64.2 25.5998C64.2 25.6998 64.2 25.7998 64.2 25.8998V27.7998H63.8V25.9998C63.8 25.8998 63.8 25.8998 63.8 25.8998V25.7998C63.8 25.6998 63.7 25.5998 63.6 25.4998C63.5 25.3998 63.4 25.3998 63.2 25.3998C62.9 25.3998 62.7 25.5998 62.5 25.9998V27.8998H62.1V26.0998C62.1 25.9998 62.1 25.8998 62.1 25.7998C62.1 25.6998 62 25.5998 61.9 25.4998C61.8 25.3998 61.7 25.3998 61.5 25.3998C61.3 25.3998 61.2 25.3998 61.1 25.4998C61 25.5998 60.9 25.6998 60.8 25.8998V27.7998H60.4V24.7998Z" fill="#231F20"/>
<path d="M65.3 26.2996C65.3 26.4996 65.3 26.5996 65.4 26.6996C65.4 26.7996 65.5 26.8996 65.6 26.9996C65.7 27.0996 65.7 27.1996 65.8 27.1996C65.9 27.1996 66 27.2996 66.1 27.2996C66.3 27.2996 66.4 27.1996 66.6 27.0996C66.7 26.9996 66.8 26.7996 66.9 26.5996H67.3C67.2 26.8996 67.1 27.1996 66.9 27.2996C66.7 27.4996 66.4 27.5996 66.1 27.5996C65.9 27.5996 65.8 27.5996 65.6 27.4996C65.5 27.3996 65.3 27.2996 65.2 27.1996C65.1 27.0996 65 26.8996 65 26.6996C64.9 26.4996 64.9 26.2996 64.9 26.0996C64.9 25.8996 64.9 25.6996 65 25.4996C65.1 25.2996 65.1 25.1996 65.2 24.9996C65.3 24.8996 65.4 24.7996 65.6 24.6996C65.7 24.5996 65.9 24.5996 66.1 24.5996C66.3 24.5996 66.5 24.5996 66.6 24.6996C66.7 24.7996 66.9 24.8996 67 24.9996C67.1 25.0996 67.2 25.2996 67.2 25.3996C67.3 25.5996 67.3 25.7996 67.3 25.9996C67.3 25.9996 67.3 25.9996 67.3 26.0996C67.3 26.1996 67.3 26.0996 67.3 26.1996H65.3V26.2996ZM65.5 25.2996C65.4 25.4996 65.3 25.6996 65.2 25.9996H66.7C66.7 25.6996 66.6 25.4996 66.5 25.2996C66.4 25.0996 66.2 25.0996 66 25.0996C65.8 24.9996 65.6 25.0996 65.5 25.2996Z" fill="#231F20"/>
<path d="M67.8 24.8002H68.2V25.3002C68.4 24.9002 68.7 24.7002 69 24.7002C69.1 24.7002 69.2 24.7002 69.4 24.8002C69.5 24.8002 69.6 24.9002 69.7 25.0002C69.8 25.1002 69.8 25.2002 69.9 25.3002C69.9 25.4002 69.9 25.5002 69.9 25.7002V27.6002H69.5V25.8002C69.5 25.6002 69.5 25.4002 69.4 25.3002C69.3 25.2002 69.2 25.1002 69 25.1002C68.8 25.1002 68.7 25.2002 68.6 25.3002C68.5 25.4002 68.4 25.5002 68.3 25.7002V27.6002H67.9V24.8002H67.8Z" fill="#231F20"/>
<path d="M70.3 24.7996H70.7V24.0996H71.1V24.7996H71.7V25.0996H71.1V26.8996C71.1 26.9996 71.1 27.0996 71.2 27.1996C71.2 27.2996 71.3 27.2996 71.4 27.2996C71.5 27.2996 71.5 27.2996 71.5 27.2996C71.5 27.2996 71.6 27.2996 71.6 27.1996V27.4996C71.5 27.4996 71.5 27.4996 71.4 27.4996C71.3 27.4996 71.3 27.4996 71.2 27.4996C71 27.4996 70.8 27.3996 70.7 27.2996C70.7 27.1996 70.7 27.0996 70.7 26.9996V25.1996H70.3V24.7996Z" fill="#231F20"/>
<path d="M73.5 23.7998H73.9V27.1998H75.7V27.5998H73.5V23.7998Z" fill="#231F20"/>
<path d="M76.1 23.8994H76.5V24.4994H76.1V23.8994ZM76.1 24.7994H76.5V27.5994H76.1V24.7994Z" fill="#231F20"/>
<path d="M77.2 24.7998H77.6V25.2998C77.7 25.0998 77.8 24.9998 78 24.8998C78.1 24.7998 78.3 24.7998 78.5 24.7998C78.7 24.7998 78.9 24.8998 79 24.9998C79.1 25.0998 79.1999 25.2998 79.2999 25.4998C79.4999 25.0998 79.8 24.8998 80.2 24.8998C80.3 24.8998 80.5 24.8998 80.6 24.9998C80.7 25.0998 80.7999 25.0998 80.8999 25.2998C80.9999 25.3998 81 25.4998 81 25.5998C81 25.6998 81 25.7998 81 25.8998V27.7998H80.6V25.9998C80.6 25.8998 80.6 25.8998 80.6 25.8998V25.7998C80.6 25.6998 80.4999 25.5998 80.3999 25.4998C80.2999 25.3998 80.2 25.3998 80 25.3998C79.7 25.3998 79.4999 25.5998 79.2999 25.9998V27.8998H78.8999V26.0998C78.8999 25.9998 78.8999 25.8998 78.8999 25.7998C78.8999 25.6998 78.8 25.5998 78.7 25.4998C78.6 25.3998 78.4999 25.3998 78.2999 25.3998C78.0999 25.3998 77.9999 25.3998 77.8999 25.4998C77.7999 25.5998 77.7 25.6998 77.6 25.8998V27.7998H77.2V24.7998Z" fill="#231F20"/>
<path d="M81.7 23.8994H82.1V24.4994H81.7V23.8994ZM81.7 24.7994H82.1V27.5994H81.7V24.7994Z" fill="#231F20"/>
<path d="M82.5 24.7996H82.9V24.0996H83.3V24.7996H83.9V25.0996H83.3V26.8996C83.3 26.9996 83.3 27.0996 83.4 27.1996C83.4 27.2996 83.5 27.2996 83.6 27.2996C83.7 27.2996 83.7 27.2996 83.7 27.2996C83.7 27.2996 83.8 27.2996 83.8 27.1996V27.4996C83.7 27.4996 83.7 27.4996 83.6 27.4996C83.5 27.4996 83.5 27.4996 83.4 27.4996C83.2 27.4996 83 27.3996 82.9 27.2996C82.8 27.1996 82.8 27.1996 82.8 27.0996C82.8 26.9996 82.8 26.8996 82.8 26.7996V24.9996H82.4V24.7996H82.5Z" fill="#231F20"/>
<path d="M84.5 26.2996C84.5 26.4996 84.5 26.5996 84.6 26.6996C84.6 26.7996 84.7 26.8996 84.8 26.9996C84.9 27.0996 84.9 27.1996 85 27.1996C85.1 27.1996 85.2 27.2996 85.3 27.2996C85.5 27.2996 85.6 27.1996 85.8 27.0996C85.9 26.9996 86 26.7996 86.1 26.5996H86.5C86.4 26.8996 86.3 27.1996 86.1 27.2996C85.9 27.4996 85.6 27.5996 85.3 27.5996C85.1 27.5996 84.9 27.5996 84.8 27.4996C84.7 27.3996 84.5 27.2996 84.4 27.1996C84.3 27.0996 84.2 26.8996 84.2 26.6996C84.1 26.4996 84.1 26.2996 84.1 26.0996C84.1 25.8996 84.1 25.6996 84.2 25.4996C84.3 25.2996 84.3 25.1996 84.4 24.9996C84.5 24.8996 84.6 24.7996 84.8 24.6996C84.9 24.5996 85.1 24.5996 85.3 24.5996C85.5 24.5996 85.6 24.5996 85.8 24.6996C85.9 24.7996 86.1 24.8996 86.2 24.9996C86.3 25.0996 86.4 25.2996 86.4 25.3996C86.5 25.5996 86.5 25.7996 86.5 25.9996C86.5 25.9996 86.5 25.9996 86.5 26.0996C86.5 26.1996 86.5 26.0996 86.5 26.1996H84.5V26.2996ZM84.7 25.2996C84.6 25.4996 84.5 25.6996 84.4 25.9996H85.9C85.9 25.6996 85.8 25.4996 85.7 25.2996C85.6 25.0996 85.4 25.0996 85.2 25.0996C85 24.9996 84.9 25.0996 84.7 25.2996Z" fill="#231F20"/>
<path d="M88.8 23.7998H89.2V27.5998H88.8V27.0998C88.7 27.4998 88.4 27.5998 88 27.5998C87.8 27.5998 87.7 27.5998 87.5 27.4998C87.4 27.3998 87.2 27.2998 87.1 27.1998C87 27.0998 86.9 26.8998 86.9 26.6998C86.8 26.4998 86.8 26.2998 86.8 26.0998C86.8 25.8998 86.8 25.6998 86.9 25.4998C87 25.2998 87 25.1998 87.1 24.9998C87.2 24.8998 87.3 24.7998 87.5 24.6998C87.6 24.5998 87.8 24.5998 88 24.5998C88.4 24.5998 88.7 24.7998 88.8 25.0998V23.7998ZM87.5 25.3998C87.4 25.5998 87.3 25.8998 87.3 26.1998C87.3 26.5998 87.4 26.8998 87.5 27.0998C87.6 27.2998 87.8 27.3998 88.1 27.3998C88.3 27.3998 88.5 27.2998 88.7 27.0998C88.8 26.8998 88.9 26.5998 88.9 26.2998C88.9 25.8998 88.8 25.5998 88.7 25.3998C88.6 25.1998 88.4 25.0998 88.1 25.0998C87.8 25.0998 87.6 25.1998 87.5 25.3998Z" fill="#231F20"/>
</svg>
