<svg width="470" height="512" viewBox="0 0 470 512" fill="none" xmlns="http://www.w3.org/2000/svg">
<path d="M362.669 298.669C303.776 298.669 256 346.419 256 405.331C256 464.23 303.776 512 362.669 512C421.561 512 469.337 464.23 469.337 405.331C469.337 346.419 421.561 298.669 362.669 298.669ZM426.669 421.331H346.669V341.331H378.669V389.331H426.669V421.331Z" fill="#FB272E" fill-opacity="0.9"/>
<path d="M341.338 0H42.6688C19.2125 0 0 19.2062 0 42.6687V426.669C0 450.125 19.2125 469.331 42.6688 469.331H213.337V405.331C213.337 323.001 280.339 256 362.669 256H384V42.6687C384 19.2062 364.794 0 341.338 0ZM64 64H277.337V106.669H64V64ZM149.338 362.669H64V320H149.338V362.669ZM192 277.331H64V234.669H192V277.331ZM320 192H64V149.331H320V192Z" fill="#FB272E" fill-opacity="0.9"/>
</svg>
