<svg width="528" height="526" viewBox="0 0 528 526" fill="none" xmlns="http://www.w3.org/2000/svg">
<rect width="528" height="526" fill="#BED8FB"/>
<g clip-path="url(#clip0_3572_47)">
<path d="M287.685 514.595L397.363 486.924C459.965 434.988 499.84 356.651 499.84 269C499.84 133.803 404.997 20.7389 278.157 -7.40479C129.674 -2.40177 10.8403 119.433 10.8403 268.999C10.8403 345.824 42.1987 415.326 92.8174 465.442L287.685 514.595Z" fill="#CBE2FF"/>
<path d="M480.527 232.156C488.772 315.665 455.904 393.748 398.408 446.34L487.711 414.169C529.741 363.404 552.285 296.532 545.299 225.762C531.408 85.0607 406.087 -17.739 265.386 -3.84818C254.415 -2.76509 243.674 -1.00329 233.201 1.3892C360.182 4.91868 467.72 102.427 480.527 232.156Z" fill="#BED8FB"/>
<path d="M327.621 103.952C327.621 90.8773 317.022 80.2783 303.947 80.2783H222.365C192.274 80.2783 167.88 104.672 167.88 134.763V195.256H360.089V135.621C360.089 122.546 349.49 111.947 336.415 111.947H335.617C334.567 111.947 333.527 111.741 332.557 111.339C331.587 110.937 330.705 110.348 329.963 109.606C329.22 108.864 328.631 107.982 328.23 107.012C327.828 106.042 327.621 105.002 327.621 103.952Z" fill="#365E7D"/>
<path d="M336.415 111.947H335.617C333.496 111.947 331.462 111.105 329.963 109.605C328.463 108.106 327.621 106.072 327.621 103.951C327.621 90.8763 317.022 80.2773 303.947 80.2773H295.002V195.255H360.088V135.62C360.089 122.547 349.489 111.947 336.415 111.947Z" fill="#2B4D66"/>
<path d="M433.045 379.355C426.645 373.032 418.834 368.32 410.255 365.61L340.364 343.482L264.016 340.799L187.636 343.482L117.745 365.61C94.1012 373.096 78.0322 395.038 78.0322 419.839V438.933C122.821 486.261 185.483 516.501 255.215 518.853C333.343 501.5 398.344 449.277 433.045 379.355Z" fill="#4A80AA"/>
<path d="M449.968 438.932V419.838C449.968 402.302 441.928 386.203 428.863 375.625C391.752 451.251 318.441 505.893 231.517 516.942C242.139 518.291 252.835 518.978 263.543 518.999C273.843 518.985 284.134 518.39 294.367 517.217C355.398 510.005 409.852 481.323 449.968 438.932Z" fill="#407093"/>
<path d="M269.796 515.168C285.285 484.417 325.618 397.101 314.117 342.559L264.016 323.06L213.868 342.56C202.012 398.785 245.238 489.837 259.549 517.85C262.983 517.025 266.399 516.131 269.796 515.168Z" fill="#E4F6FF"/>
<path d="M296.197 490.789L275.883 410.872H252.116L231.852 490.571L256.91 518.468C263.241 517.018 269.515 515.331 275.72 513.411L296.197 490.789Z" fill="#E28086"/>
<path d="M257.302 518.905C259.377 518.959 261.456 518.996 263.543 519C265.958 518.996 268.365 518.954 270.765 518.887L283.672 504.628C273.434 508.22 262.976 511.152 252.363 513.407L257.302 518.905Z" fill="#DD636E"/>
<path d="M306.774 335.183V290.117H221.194V335.183C221.194 358.815 263.984 384.629 263.984 384.629C263.984 384.629 306.774 358.815 306.774 335.183Z" fill="#FFDDCE"/>
<path d="M360.089 187.318H343.73C334.632 187.318 327.257 179.943 327.257 170.845V161.83C327.257 149.979 315.662 141.6 304.41 145.319C278.167 153.993 249.831 153.995 223.587 145.325L223.556 145.315C212.304 141.598 200.711 149.977 200.711 161.827V170.846C200.711 179.944 193.336 187.319 184.238 187.319H167.88V214.257C167.88 221.14 173.46 226.721 180.344 226.721C182.516 226.721 184.283 228.422 184.42 230.59C187.048 272.258 221.655 305.244 263.985 305.244C306.315 305.244 340.922 272.258 343.55 230.59C343.687 228.423 345.454 226.721 347.626 226.721C354.509 226.721 360.09 221.141 360.09 214.257V187.318H360.089Z" fill="#FFDDCE"/>
<path d="M343.73 187.318C334.632 187.318 327.257 179.943 327.257 170.845V161.83C327.257 149.979 315.662 141.6 304.41 145.319C301.31 146.341 298.172 147.243 295.003 148.026V236.998C294.565 265.946 278.703 291.14 255.278 304.756C258.169 305.076 261.076 305.238 263.984 305.242C306.314 305.242 340.921 272.256 343.549 230.588C343.686 228.421 345.453 226.719 347.625 226.719C354.508 226.719 360.089 221.139 360.089 214.255V187.317L343.73 187.318Z" fill="#FFCBBE"/>
<path d="M221.194 323.06L187.636 350.327L222.828 393.84C224.894 395.852 227.634 397.026 230.516 397.136C233.398 397.246 236.219 396.283 238.433 394.434L264.898 372.327L221.194 323.06ZM306.79 323.06L264.898 372.327L289.772 393.595C291.971 395.475 294.792 396.47 297.685 396.387C300.577 396.303 303.336 395.146 305.423 393.142L340.363 350.327L306.79 323.06Z" fill="#F4FBFF"/>
<path d="M221.194 323.06L171.938 347.259C171.048 347.696 170.253 348.307 169.602 349.055C168.95 349.803 168.454 350.673 168.143 351.616C167.832 352.558 167.712 353.552 167.79 354.541C167.868 355.53 168.142 356.494 168.597 357.376L178.247 376.086C179.466 378.448 179.902 381.137 179.492 383.763C179.081 386.39 177.846 388.817 175.965 390.696C173.964 392.693 171.962 394.691 169.961 396.689C166.623 400.021 165.424 404.944 166.894 409.426C178.545 444.943 234.619 499.254 255.84 518.904C257.267 518.942 258.697 518.968 260.13 518.984C244.741 489.051 190.208 375.329 221.194 323.06ZM352.019 390.695C350.138 388.817 348.903 386.389 348.493 383.762C348.082 381.136 348.518 378.447 349.737 376.085L359.387 357.375C359.842 356.493 360.116 355.529 360.194 354.54C360.272 353.551 360.152 352.557 359.841 351.615C359.53 350.672 359.034 349.802 358.382 349.054C357.731 348.306 356.937 347.695 356.046 347.258L306.79 323.06C337.768 375.315 283.273 488.989 267.867 518.96C269.315 518.935 270.76 518.899 272.202 518.851C293.467 499.156 349.45 444.911 361.09 409.427C362.56 404.945 361.361 400.022 358.023 396.69L352.019 390.695Z" fill="#365E7D"/>
<path d="M264.898 372.327L238.838 394.091L252.116 410.872H275.883L289.162 393.101L264.898 372.327Z" fill="#DD636E"/>
</g>
<defs>
<clipPath id="clip0_3572_47">
<rect width="512" height="512" fill="white" transform="translate(8 7)"/>
</clipPath>
</defs>
</svg>
