<svg width="29" height="28" viewBox="0 0 29 28" fill="none" xmlns="http://www.w3.org/2000/svg">
<path d="M28.5 14C28.5 21.7321 22.2321 28 14.5 28C6.7679 28 0.5 21.7321 0.5 14C0.5 6.2679 6.7679 0 14.5 0C22.2321 0 28.5 6.2679 28.5 14Z" fill="#FB272E" fill-opacity="0.95"/>
<path d="M7.36337 12.1808V11.9875C7.36337 8.88646 9.88646 6.36337 12.9875 6.36337C15.9013 6.36337 18.3045 8.59057 18.5844 11.432L19.9508 12.6788C19.9666 12.5106 19.9753 12.3445 19.9753 12.1808V11.9875C19.9753 8.13465 16.8407 5 12.9875 5C9.1346 5 6 8.13465 6 11.9875V12.1808C6 14.1295 7.11704 16.4001 9.3206 18.9298C10.9178 20.7637 12.4928 22.0424 12.5591 22.096L12.9875 22.4422V20.6704C11.606 19.4598 7.36337 15.4736 7.36337 12.1808ZM17.1802 17.6459H19.2253V19.691H17.1802V17.6459Z" fill="white"/>
<path d="M9.99609 11.9871C9.99609 13.6367 11.3383 14.9789 12.9878 14.9789C14.6374 14.9789 15.9796 13.6367 15.9796 11.9871C15.9796 10.3375 14.6374 8.99536 12.9878 8.99536C11.3383 8.99536 9.99609 10.3375 9.99609 11.9871ZM14.4274 11.9871C14.4274 12.7808 13.7815 13.4267 12.9878 13.4267C12.1942 13.4267 11.5483 12.781 11.5483 11.9871C11.5483 11.1934 12.194 10.5475 12.9878 10.5475C13.7815 10.5475 14.4274 11.1934 14.4274 11.9871ZM23.6282 17.7508L18.186 12.7858L12.7437 17.7507L13.7898 18.8975L14.0849 18.6283V20.6033C14.0849 21.6744 14.9563 22.5459 16.0277 22.5459H20.3445C21.4158 22.5459 22.2873 21.6744 22.2873 20.6033V18.6283L22.5824 18.8975L23.6282 17.7508ZM20.7349 20.6033C20.7349 20.8185 20.5597 20.9937 20.3445 20.9937H16.0275C15.8121 20.9937 15.6369 20.8185 15.6369 20.6033V17.2122L18.186 14.8867L20.7349 17.2122V20.6033Z" fill="white"/>
</svg>
