<svg width="31" height="33" viewBox="0 0 31 33" fill="none" xmlns="http://www.w3.org/2000/svg">
<path d="M1.64822 8.31396H29.3221V10.546H1.64822V8.31396Z" fill="#CC0A13"/>
<path d="M15.4851 25.3171C17.8734 25.3171 19.8095 23.2561 19.8095 20.7138C19.8095 18.1714 17.8734 16.1104 15.4851 16.1104C13.0969 16.1104 11.1608 18.1714 11.1608 20.7138C11.1608 23.2561 13.0969 25.3171 15.4851 25.3171Z" fill="url(#paint0_linear_2808_20025)" fill-opacity="0.75"/>
<path d="M0.455872 28.5983H30.5144V32.4828H0.455872V28.5983ZM0.455872 10.5462H30.5144V12.829H0.455872V10.5462ZM15.4851 0.485352L0.455872 6.19796V8.31414H30.5144V6.19796L15.4851 0.485352Z" fill="#F7000B" fill-opacity="0.75"/>
<path d="M2.5889 12.8291H8.06209V15.1968H2.5889V12.8291ZM2.5889 26.231H8.06209V28.5984H2.5889V26.231Z" fill="#CC0A13"/>
<path d="M3.44984 15.1968H7.20111V26.231H3.44984V15.1968Z" fill="#CC0A13"/>
<path d="M22.9082 12.8291H28.3814V15.1968H22.9082V12.8291ZM22.9082 26.231H28.3814V28.5984H22.9082V26.231Z" fill="#CC0A13"/>
<path d="M23.7692 15.1968H27.5205V26.231H23.7692V15.1968Z" fill="#CC0A13"/>
<path d="M15.4851 25.8019C16.4307 25.802 17.355 25.5036 18.1412 24.9444C18.9274 24.3852 19.5402 23.5904 19.9021 22.6605C20.2639 21.7305 20.3586 20.7073 20.174 19.7201C19.9895 18.7329 19.5342 17.826 18.8656 17.1144C18.1969 16.4027 17.345 15.9181 16.4177 15.7217C15.4903 15.5254 14.529 15.6263 13.6555 16.0117C12.782 16.3969 12.0354 17.0493 11.5102 17.8863C10.985 18.7233 10.7048 19.7073 10.7049 20.7139C10.7066 22.0628 11.2108 23.356 12.107 24.3099C13.0031 25.2637 14.2179 25.8002 15.4851 25.8019ZM15.4851 16.5952C16.2504 16.5951 16.9983 16.8366 17.6346 17.2891C18.2708 17.7416 18.7667 18.3847 19.0596 19.1372C19.3525 19.8898 19.4291 20.7178 19.2798 21.5167C19.1306 22.3157 18.7622 23.0494 18.2213 23.6255C17.6802 24.2015 16.9909 24.5938 16.2404 24.7527C15.49 24.9117 14.7121 24.8302 14.0052 24.5185C13.2982 24.2068 12.694 23.6791 12.2689 23.0018C11.8437 22.3246 11.6167 21.5284 11.6166 20.7139C11.6179 19.622 12.0258 18.5752 12.751 17.8031C13.4762 17.031 14.4595 16.5966 15.4851 16.5952ZM23.4641 31.9979H22.2919C22.171 31.9979 22.055 32.049 21.9695 32.14C21.8841 32.231 21.836 32.3545 21.836 32.4832C21.836 32.6119 21.8841 32.7354 21.9695 32.8264C22.055 32.9174 22.171 32.9685 22.2919 32.9685H23.4641C23.5851 32.9685 23.701 32.9174 23.7865 32.8264C23.872 32.7354 23.92 32.6119 23.92 32.4832C23.92 32.3545 23.872 32.231 23.7865 32.14C23.701 32.049 23.5851 31.9979 23.4641 31.9979Z" fill="black"/>
<path d="M30.5144 8.79945C30.5743 8.79953 30.6336 8.78691 30.6889 8.76257C30.7442 8.73824 30.7945 8.70243 30.8369 8.65739C30.8792 8.61234 30.9128 8.5588 30.9357 8.49989C30.9586 8.44099 30.9704 8.37788 30.9703 8.3141V6.19797C30.9703 6.0979 30.9412 6.00028 30.8871 5.91848C30.833 5.83668 30.7563 5.77468 30.6678 5.74096L15.6383 0.0280778C15.5392 -0.00935927 15.4311 -0.00935927 15.332 0.0280778L7.60933 2.96369C7.49536 3.00694 7.40216 3.09662 7.35026 3.213C7.29835 3.3294 7.29204 3.46296 7.33267 3.58431C7.37331 3.70566 7.45752 3.80488 7.56687 3.8601C7.67621 3.91533 7.80169 3.92207 7.9157 3.87882L15.4851 1.00061L30.0585 6.54017V7.82884H0.911764V6.54017L5.62376 4.74902C5.68021 4.7276 5.73214 4.69457 5.77659 4.65179C5.82105 4.60901 5.85715 4.55733 5.88284 4.4997C5.90853 4.44207 5.92331 4.37962 5.92632 4.31591C5.92934 4.2522 5.92054 4.18848 5.90042 4.1284C5.88031 4.06831 5.84927 4.01303 5.80908 3.96571C5.7689 3.91839 5.72035 3.87995 5.66621 3.85261C5.61208 3.82526 5.55341 3.80954 5.49356 3.80632C5.43371 3.80311 5.37386 3.81247 5.31741 3.83389L0.302706 5.74096C0.214152 5.77463 0.137538 5.83661 0.0833513 5.91843C0.0291636 6.00023 5.17375e-05 6.09786 0 6.19797V8.3141C0 8.44289 0.0480302 8.56631 0.133525 8.6573C0.21902 8.7483 0.334974 8.79945 0.455882 8.79945H1.19233V10.0609H0.455882C0.334974 10.0609 0.21902 10.112 0.133525 10.203C0.0480302 10.294 0 10.4174 0 10.5462V12.829C0 12.9578 0.0480302 13.0812 0.133525 13.1722C0.21902 13.2632 0.334974 13.3143 0.455882 13.3143H2.13301V15.1967C2.13301 15.3254 2.18104 15.4489 2.26653 15.5399C2.35202 15.6309 2.46799 15.682 2.58889 15.682H2.99397V25.7464H2.59019C2.46931 25.7465 2.35339 25.7977 2.26791 25.8887C2.18243 25.9797 2.13438 26.1031 2.13431 26.2317V28.1141H0.455882C0.334974 28.1141 0.21902 28.1653 0.133525 28.2563C0.0480302 28.3472 0 28.4708 0 28.5995V32.484C0 32.6127 0.0480302 32.7362 0.133525 32.8272C0.21902 32.9182 0.334974 32.9693 0.455882 32.9693H19.8859C20.0068 32.9693 20.1227 32.9182 20.2082 32.8272C20.2938 32.7362 20.3417 32.6127 20.3417 32.484C20.3417 32.3553 20.2938 32.2318 20.2082 32.1408C20.1227 32.0499 20.0068 31.9987 19.8859 31.9987H0.911764V29.0839H30.0585V31.9979H25.9799C25.859 31.9979 25.7429 32.049 25.6575 32.14C25.572 32.231 25.5239 32.3544 25.5239 32.4831C25.5239 32.6119 25.572 32.7353 25.6575 32.8263C25.7429 32.9173 25.859 32.9685 25.9799 32.9685H30.5144C30.5743 32.9685 30.6336 32.9559 30.6889 32.9316C30.7442 32.9073 30.7945 32.8715 30.8369 32.8264C30.8792 32.7814 30.9128 32.7278 30.9357 32.6689C30.9586 32.61 30.9704 32.5469 30.9703 32.4831V28.5986C30.9704 28.5349 30.9586 28.4717 30.9357 28.4128C30.9128 28.3539 30.8792 28.3004 30.8369 28.2553C30.7945 28.2103 30.7442 28.1745 30.6889 28.1502C30.6336 28.1257 30.5743 28.1132 30.5144 28.1133H28.8373V26.2309C28.8373 26.1023 28.7893 25.9788 28.7038 25.8878C28.6183 25.7968 28.5023 25.7456 28.3814 25.7456H27.9763V15.682H28.3814C28.4413 15.6821 28.5006 15.6696 28.5559 15.6451C28.6112 15.6208 28.6615 15.585 28.7038 15.5399C28.7462 15.4949 28.7798 15.4414 28.8026 15.3825C28.8256 15.3236 28.8374 15.2604 28.8373 15.1967V13.3143H30.5144C30.5743 13.3144 30.6336 13.3018 30.6889 13.2775C30.7442 13.2531 30.7945 13.2173 30.8369 13.1723C30.8792 13.1272 30.9128 13.0737 30.9357 13.0148C30.9586 12.9559 30.9704 12.8928 30.9703 12.829V10.5462C30.9704 10.4825 30.9586 10.4193 30.9357 10.3605C30.9128 10.3015 30.8792 10.248 30.8369 10.2029C30.7945 10.1579 30.7442 10.1221 30.6889 10.0978C30.6336 10.0734 30.5743 10.0609 30.5144 10.0609H29.778V8.79945H30.5144ZM7.6062 13.3143V14.7114H3.04477V13.3143H7.6062ZM22.4524 13.3143V15.1967C22.4523 15.2604 22.4641 15.3236 22.487 15.3825C22.5099 15.4414 22.5434 15.4949 22.5857 15.5399C22.6281 15.585 22.6784 15.6208 22.7338 15.6451C22.789 15.6696 22.8484 15.6821 22.9082 15.682H23.3133V25.7464H22.9095C22.7886 25.7464 22.6726 25.7975 22.5871 25.8886C22.5017 25.9796 22.4536 26.1031 22.4536 26.2317V28.1141H8.51795V26.2309C8.51787 26.1023 8.46982 25.9788 8.38442 25.8878C8.29885 25.7968 8.18299 25.7457 8.06209 25.7456H7.657V15.682H8.06209C8.18299 15.682 8.29893 15.6309 8.38449 15.5399C8.4699 15.4489 8.51795 15.3254 8.51795 15.1967V13.3143H22.4524ZM3.90443 15.682H6.74393V25.7464H3.90574L3.90443 15.682ZM3.04477 26.7162H7.6062V28.1133H3.04477V26.7162ZM23.3641 28.1133V26.717H27.9255V28.1141L23.3641 28.1133ZM27.0632 25.7456H24.2251V15.682H27.0646L27.0632 25.7456ZM27.9229 14.7114H23.3641V13.3143H27.9255L27.9229 14.7114ZM30.0559 12.3437H0.911764V11.0315H30.0585L30.0559 12.3437ZM28.8636 10.0609H2.10409V8.79945H28.8662L28.8636 10.0609Z" fill="black"/>
<path d="M14.9332 18.4129C15.0107 18.5586 15.0807 18.795 15.0807 19.1432V20.2726H15.3157L15.7102 20.7889H15.0807V22.2516C15.0807 22.3663 15.1141 22.4702 15.1813 22.5635C15.2485 22.6568 15.3575 22.7031 15.5085 22.7031C15.7042 22.7031 15.9114 22.5635 16.1292 22.2837C16.3532 21.9968 16.4705 21.7032 16.4816 21.402L16.3809 21.4127C16.0231 21.4127 15.8442 21.169 15.8442 20.6813C15.8442 20.5162 15.8863 20.3695 15.9702 20.2405C16.0541 20.1116 16.1941 20.0468 16.3898 20.0468C16.5966 20.0468 16.7703 20.1615 16.9099 20.3908C17.0554 20.6202 17.1282 20.9 17.1282 21.2297C17.1282 21.7175 16.9659 22.1833 16.6415 22.6277C16.3226 23.0722 15.713 23.2943 15.5002 23.2943C15.1602 23.2943 15.0287 23.2088 14.9177 23.1108C14.8068 23.013 14.6608 22.7801 14.6608 22.4876V20.7884H14.258L13.8719 20.2721H14.6608V19.2502C14.6608 19.0219 14.4831 18.8975 14.367 18.8848C14.2957 18.8766 14.2186 18.9026 14.1908 18.9387C14.1403 18.8312 14.093 18.7023 14.048 18.5514C14.048 18.5514 14.0877 18.3695 14.2158 18.2609C14.3045 18.186 14.388 18.1641 14.5181 18.1641C14.7662 18.1641 14.8802 18.313 14.9332 18.4129Z" fill="white" fill-opacity="0.9"/>
<defs>
<linearGradient id="paint0_linear_2808_20025" x1="22.243" y1="26.5973" x2="7.96009" y2="25.5139" gradientUnits="userSpaceOnUse">
<stop offset="0.341164" stop-color="#FF5D50" stop-opacity="0.95"/>
<stop offset="0.75824" stop-color="#F7000B"/>
</linearGradient>
</defs>
</svg>
