<svg width="36" height="35" viewBox="0 0 36 35" fill="none" xmlns="http://www.w3.org/2000/svg">
<path d="M18.2061 0H1.7938C1.31806 0 0.861796 0.182776 0.525393 0.508118C0.188989 0.833461 0 1.27472 0 1.73482L0 33.2651C1.87451e-05 33.7252 0.189022 34.1665 0.525434 34.4918C0.861847 34.8172 1.31811 35 1.79387 35H18.2061C18.6819 35 19.1382 34.8172 19.4746 34.4918C19.811 34.1665 20 33.7252 20 33.2651V1.73489C20 1.27477 19.811 0.833494 19.4746 0.508138C19.1382 0.182783 18.6819 0 18.2061 0Z" fill="url(#paint0_linear_2641_7877)"/>
<path d="M6.48355 2.29766C6.33406 2.29766 6.1907 2.23828 6.085 2.13258C5.9793 2.02688 5.91992 1.88352 5.91992 1.73404C5.91992 1.58455 5.9793 1.44119 6.085 1.33549C6.1907 1.22979 6.33406 1.17041 6.48355 1.17041H13.4137C13.5632 1.17041 13.7065 1.22979 13.8122 1.33549C13.9179 1.44119 13.9773 1.58455 13.9773 1.73404C13.9773 1.88352 13.9179 2.02688 13.8122 2.13258C13.7065 2.23828 13.5632 2.29766 13.4137 2.29766H6.48355ZM11.3532 32.2659C11.3532 32.4154 11.2938 32.5587 11.1881 32.6644C11.0824 32.7701 10.939 32.8295 10.7896 32.8295H9.10698C8.95749 32.8295 8.81413 32.7701 8.70843 32.6644C8.60273 32.5587 8.54335 32.4154 8.54335 32.2659C8.54335 32.1164 8.60273 31.9731 8.70843 31.8674C8.81413 31.7617 8.95749 31.7023 9.10698 31.7023H10.7896C10.939 31.7023 11.0824 31.7617 11.1881 31.8674C11.2938 31.9731 11.3532 32.1164 11.3532 32.2659Z" fill="#252526"/>
<path d="M34.6314 9.73682H13.2514C12.4956 9.73682 11.8828 10.3496 11.8828 11.1054V24.894C11.8828 25.6499 12.4956 26.2626 13.2514 26.2626H34.6314C35.3872 26.2626 36 25.6499 36 24.894V11.1054C36 10.3496 35.3872 9.73682 34.6314 9.73682Z" fill="#E57E25"/>
<path d="M35.4453 24.9711C35.6179 24.839 35.7578 24.669 35.854 24.4741C35.9502 24.2793 36.0002 24.0649 36.0001 23.8475V10.1529C36.0001 9.96701 35.9635 9.78293 35.8924 9.61118C35.8212 9.43943 35.7169 9.28338 35.5855 9.15192C35.454 9.02047 35.298 8.9162 35.1262 8.84506C34.9545 8.77392 34.7704 8.7373 34.5845 8.7373H20.8867L35.4165 24.9604L35.4453 24.9711Z" fill="#F29C1F"/>
<path d="M26.9962 8.7373H13.2984C13.1125 8.7373 12.9284 8.77392 12.7567 8.84506C12.5849 8.9162 12.4289 9.02047 12.2974 9.15192C12.166 9.28338 12.0617 9.43943 11.9906 9.61118C11.9194 9.78293 11.8828 9.96701 11.8828 10.1529V23.8475C11.8826 24.0583 11.9296 24.2665 12.0204 24.4567C12.1111 24.647 12.2432 24.8145 12.4071 24.9471L12.4668 24.9604L26.9962 8.7373Z" fill="#F29C1F"/>
<path d="M34.5844 8.7373H13.2984C13.1125 8.7373 12.9284 8.77392 12.7567 8.84506C12.5849 8.9162 12.4289 9.02047 12.2974 9.15192C12.166 9.28338 12.0617 9.43943 11.9906 9.61118C11.9194 9.78293 11.8828 9.96701 11.8828 10.1529V10.6971L22.0983 17.7363C22.6404 18.1098 23.2831 18.3098 23.9414 18.3098C24.5997 18.3098 25.2424 18.1098 25.7845 17.7363L36 10.6971V10.1529C36 9.77747 35.8509 9.4174 35.5854 9.15192C35.3199 8.88645 34.9598 8.7373 34.5844 8.7373Z" fill="#F0C419"/>
<path d="M10.0967 17.0005C10.0967 17.1505 10.0371 17.2944 9.93101 17.4006C9.8249 17.5067 9.68098 17.5663 9.53092 17.5663H4.27415C4.19985 17.5663 4.12627 17.5516 4.05762 17.5232C3.98898 17.4948 3.9266 17.4531 3.87406 17.4006C3.82152 17.348 3.77985 17.2856 3.75141 17.217C3.72298 17.1483 3.70834 17.0748 3.70834 17.0005C3.70834 16.9262 3.72298 16.8526 3.75141 16.7839C3.77985 16.7153 3.82152 16.6529 3.87406 16.6004C3.9266 16.5478 3.98898 16.5062 4.05762 16.4777C4.12627 16.4493 4.19985 16.4347 4.27415 16.4347H9.53085C9.60516 16.4347 9.67874 16.4493 9.7474 16.4777C9.81605 16.5061 9.87843 16.5478 9.93098 16.6004C9.98353 16.6529 10.0252 16.7153 10.0537 16.7839C10.0821 16.8526 10.0967 16.9262 10.0967 17.0005ZM3.44959 12.626H7.33654C7.4866 12.626 7.63051 12.6856 7.73662 12.7917C7.84273 12.8978 7.90234 13.0417 7.90234 13.1918C7.90234 13.3418 7.84273 13.4858 7.73662 13.5919C7.63051 13.698 7.4866 13.7576 7.33654 13.7576H3.44959C3.29953 13.7576 3.15562 13.698 3.04951 13.5919C2.9434 13.4858 2.88379 13.3418 2.88379 13.1918C2.88379 13.0417 2.9434 12.8978 3.04951 12.7917C3.15562 12.6856 3.29953 12.626 3.44959 12.626ZM6.51205 21.375H3.44959C3.29953 21.375 3.15562 21.3153 3.04951 21.2092C2.9434 21.1031 2.88379 20.9592 2.88379 20.8092C2.88379 20.6591 2.9434 20.5152 3.04951 20.4091C3.15562 20.303 3.29953 20.2434 3.44959 20.2434H6.51205C6.66212 20.2434 6.80603 20.303 6.91214 20.4091C7.01825 20.5152 7.07786 20.6591 7.07786 20.8092C7.07786 20.9592 7.01825 21.1031 6.91214 21.2092C6.80603 21.3153 6.66212 21.375 6.51205 21.375Z" fill="#FCEE86"/>
<defs>
<linearGradient id="paint0_linear_2641_7877" x1="-2.51319" y1="23.3333" x2="24.1162" y2="-7.20512" gradientUnits="userSpaceOnUse">
<stop stop-color="#CC0A13"/>
<stop offset="1" stop-color="white"/>
</linearGradient>
</defs>
</svg>
