<svg width="36" height="36" viewBox="0 0 36 36" fill="none" xmlns="http://www.w3.org/2000/svg">
<path fill-rule="evenodd" clip-rule="evenodd" d="M27.3486 18.1538H0.450684V32.2955C0.450684 34.0919 1.96168 35.5619 3.80813 35.5619H25.97C26.7281 35.5619 27.3486 34.9582 27.3486 34.2206V18.1538Z" fill="url(#paint0_linear_2641_7926)" fill-opacity="0.65"/>
<path fill-rule="evenodd" clip-rule="evenodd" d="M26.4267 15.5361H3.14122C1.66181 15.5361 0.45166 16.7135 0.45166 18.1527C0.45166 19.592 1.66181 20.7693 3.14122 20.7693H27.3496V16.4332C27.3488 15.94 26.9344 15.5361 26.4267 15.5361Z" fill="white"/>
<path fill-rule="evenodd" clip-rule="evenodd" d="M3.67822 5.98633H24.0651V18.1539H3.67822V5.98633Z" fill="#5CB85C"/>
<path d="M15.1625 13.251C15.8331 12.5987 15.8331 11.541 15.1625 10.8886C14.4919 10.2362 13.4047 10.2362 12.7342 10.8886C12.0636 11.541 12.0636 12.5987 12.7342 13.251C13.4047 13.9034 14.4919 13.9034 15.1625 13.251Z" fill="#FBFBFB"/>
<path fill-rule="evenodd" clip-rule="evenodd" d="M31.0474 0.438965H35.5488V11.1292H31.0474V0.438965Z" fill="url(#paint1_linear_2641_7926)" fill-opacity="0.65"/>
<path fill-rule="evenodd" clip-rule="evenodd" d="M24.6989 25.6919H28.3271C28.5686 25.6919 28.7656 25.8843 28.7656 26.1185V29.7777C28.7656 30.0126 28.5678 30.2043 28.3271 30.2043H24.6989C23.4233 30.2043 22.3794 29.1887 22.3794 27.9477C22.3794 26.7068 23.4233 25.6919 24.6989 25.6919Z" fill="#5CB85C"/>
<path fill-rule="evenodd" clip-rule="evenodd" d="M21.5252 5.83966C21.4808 5.836 21.4372 5.85137 21.4056 5.8821L17.7533 9.43527C17.5405 9.64234 17.2547 9.75576 16.9538 9.75576C16.6522 9.75576 16.3672 9.64234 16.1536 9.43527C15.9407 9.2282 15.8234 8.95015 15.8234 8.65673C15.8234 8.36332 15.9407 8.08673 16.1536 7.87893L20.6227 3.53039C20.6813 3.47332 20.6813 3.38039 20.6227 3.32405C20.564 3.26698 20.4685 3.26698 20.4098 3.32405L17.8248 5.83893H14.1943L16.7199 2.91137C17.4382 2.07868 18.3799 1.65137 19.4968 1.65137H30.8973V9.916H29.0719C29.034 9.91593 28.9975 9.92978 28.9696 9.95478C27.6677 11.1226 26.1695 11.4101 24.4547 11.0538L24.217 11.0041V7.52917L24.5021 7.51454C24.8488 7.49698 25.194 7.44356 25.5317 7.36747C25.5705 7.35863 25.6041 7.33516 25.6251 7.30223C25.6461 7.2693 25.6529 7.2296 25.6438 7.19186C25.6347 7.15405 25.6107 7.12127 25.5768 7.1007C25.543 7.08013 25.5022 7.07344 25.4633 7.0821C24.7382 7.246 23.9643 7.30015 23.2445 7.0821C22.5684 6.87722 22.0412 6.46234 21.6358 5.90039C21.6102 5.866 21.5696 5.84332 21.5252 5.83966Z" fill="#F5CBAA"/>
<path fill-rule="evenodd" clip-rule="evenodd" d="M10.4777 32.2485C10.4777 32.4907 10.2754 32.6876 10.0265 32.6876H4.62777C4.37882 32.6876 4.1765 32.4907 4.1765 32.2485C4.1765 32.0063 4.37882 31.8095 4.62777 31.8095H10.0265C10.2754 31.8102 10.4777 32.0063 10.4777 32.2485ZM4.1765 29.4088C4.1765 29.1666 4.37882 28.9698 4.62777 28.9698H7.32711C7.57606 28.9698 7.77838 29.1666 7.77838 29.4088C7.77838 29.6517 7.57606 29.8478 7.32711 29.8478H4.62777C4.37882 29.8485 4.1765 29.6524 4.1765 29.4088ZM26.0239 27.8283C26.0239 28.0712 25.8216 28.2673 25.5727 28.2673H24.1113C23.8616 28.2673 23.66 28.0712 23.66 27.8283C23.66 27.5861 23.8616 27.3893 24.1113 27.3893H25.5727C25.8216 27.3893 26.0239 27.5861 26.0239 27.8283ZM35.0975 10.6902H31.4986V0.878049H32.8464V7.1239C32.8464 7.3661 33.0487 7.56293 33.2976 7.56293C33.5474 7.56293 33.7489 7.3661 33.7489 7.1239V0.878049H35.0975V10.6902ZM29.0715 9.62342C28.9579 9.62342 28.8489 9.66512 28.7654 9.73976C27.5906 10.7934 26.233 11.1241 24.5167 10.7678V7.80732C24.8597 7.78976 25.2207 7.73854 25.599 7.65293C25.8419 7.59805 25.9924 7.36244 25.9359 7.1261C25.8795 6.88976 25.6374 6.74342 25.3944 6.79756C23.8067 7.15683 22.6575 6.80854 21.8813 5.73293C21.8433 5.68062 21.7942 5.63698 21.7371 5.60501C21.6801 5.57304 21.6167 5.55352 21.5511 5.54781C21.418 5.53683 21.2871 5.58366 21.1924 5.67512L17.5401 9.22829C17.3844 9.37976 17.1761 9.46317 16.9534 9.46317C16.7301 9.46317 16.5217 9.37976 16.366 9.22829C16.2103 9.07683 16.1238 8.87415 16.1238 8.65683C16.1238 8.44024 16.2096 8.23756 16.366 8.0861L20.8351 3.73756C21.0111 3.56634 21.0111 3.28829 20.8351 3.11707C20.6591 2.94585 20.3725 2.94585 20.1966 3.11707L17.6995 5.54634H14.8392L16.9497 3.09951C17.6108 2.33341 18.4674 1.94415 19.4963 1.94415H30.5961V9.62342H29.0715ZM26.4271 15.9761C26.5519 15.9763 26.6715 16.0246 26.7598 16.1105C26.848 16.1963 26.8977 16.3127 26.8979 16.4341V20.332H3.14159C1.90661 20.332 0.902538 19.3544 0.902538 18.1537C0.902538 16.9529 1.90661 15.9761 3.14159 15.9761H3.22733V17.7146H2.70536C2.45641 17.7146 2.25409 17.9115 2.25409 18.1537C2.25409 18.3966 2.45641 18.5927 2.70536 18.5927H25.0951C25.344 18.5927 25.5464 18.3966 25.5464 18.1537C25.5464 17.9115 25.344 17.7146 25.0951 17.7146H24.5167V15.9761H26.4271ZM24.6987 25.252H26.8979V21.2093H3.14159C2.26537 21.2093 1.47264 20.8581 0.902538 20.2939V32.2946C0.902538 33.8539 2.20595 35.122 3.80871 35.122H25.9705C26.482 35.122 26.8979 34.7173 26.8979 34.2198V30.6432H24.6987C23.1712 30.6432 21.9279 29.4344 21.9279 27.9476C21.9279 26.4615 23.1712 25.252 24.6987 25.252ZM28.3141 29.7659V26.1307H24.6987C23.6691 26.1307 22.8305 26.9466 22.8305 27.9483C22.8305 28.9507 23.6691 29.7659 24.6987 29.7659H28.3141ZM19.3632 8.69707L18.1786 9.84951C17.8522 10.1663 17.4167 10.3412 16.9534 10.3412C16.4894 10.3412 16.0539 10.1663 15.7275 9.84951C15.4108 9.54146 15.2341 9.13317 15.2236 8.69707H8.13488C7.95738 9.50854 7.29928 10.1488 6.46518 10.3207V13.8176C7.29928 13.9902 7.95738 14.6305 8.13488 15.442H19.6084C19.7859 14.6305 20.444 13.9902 21.2781 13.8176V10.3207C20.444 10.1488 19.7859 9.50854 19.6084 8.69707H19.3632ZM13.872 6.42439H4.12987V17.7139H23.6142V7.76854C22.7673 7.64488 22.052 7.26951 21.4736 6.64463L20.2169 7.86732C20.3635 7.93976 20.4643 8.08756 20.4643 8.25878C20.4643 8.93707 21.0314 9.48951 21.7294 9.48951C21.9791 9.48951 22.1806 9.68634 22.1806 9.92854V14.2112C22.1806 14.4541 21.9791 14.6502 21.7294 14.6502C21.0314 14.6502 20.4643 15.2027 20.4643 15.8817C20.4643 16.1239 20.262 16.3207 20.013 16.3207H7.73099C7.48204 16.3207 7.27972 16.1239 7.27972 15.8817C7.27972 15.2027 6.71188 14.6502 6.01392 14.6502C5.76497 14.6502 5.56265 14.4541 5.56265 14.2112V9.92854C5.56265 9.68634 5.76497 9.48951 6.01392 9.48951C6.71188 9.48951 7.27972 8.93707 7.27972 8.25878C7.27972 8.01585 7.48204 7.81976 7.73099 7.81976H15.4515C15.5267 7.69171 15.6177 7.57244 15.7275 7.46561L16.797 6.42512L13.872 6.42439ZM35.5487 0H31.0473C30.7976 0 30.5961 0.196829 30.5961 0.439024V1.0661H19.4963C18.2065 1.0661 17.0873 1.57463 16.2585 2.53537L13.6614 5.54634H3.6786C3.42965 5.54634 3.22733 5.74317 3.22733 5.98537V15.0973H3.14159C1.40946 15.0973 0 16.4678 0 18.1529V32.2946C0 34.3376 1.70881 36 3.80871 36H25.9705C26.9799 36 27.8004 35.201 27.8004 34.2198V30.6432H28.3269C28.8181 30.6432 29.2167 30.2546 29.2167 29.7776V26.1183C29.2167 25.6405 28.8181 25.252 28.3269 25.252H27.8004V16.4334C27.8004 15.6966 27.1845 15.0973 26.4271 15.0973H24.5167V11.6627C24.9514 11.7424 25.3704 11.7827 25.7735 11.7827C27.0882 11.7827 28.2344 11.3583 29.2437 10.5015H30.5961V11.1293C30.5961 11.3715 30.7976 11.5683 31.0473 11.5683H35.5487C35.7977 11.5683 36 11.3715 36 11.1293V0.439756C36 0.197561 35.7977 0 35.5487 0ZM10.7665 12.0695C10.7665 12.3117 10.5642 12.5085 10.3153 12.5085H8.58314C8.33419 12.5085 8.13187 12.3117 8.13187 12.0695C8.13187 11.8266 8.33419 11.6305 8.58314 11.6305H10.3153C10.5642 11.6312 10.7665 11.8266 10.7665 12.0695ZM17.428 11.6312H19.1601C19.4091 11.6312 19.6114 11.8273 19.6114 12.0702C19.6114 12.3124 19.4091 12.5093 19.1601 12.5093H17.428C17.1791 12.5093 16.9767 12.3124 16.9767 12.0702C16.9767 11.8266 17.1791 11.6312 17.428 11.6312ZM13.872 13.3002C14.57 13.3002 15.1371 12.7478 15.1371 12.0695C15.1371 11.3905 14.57 10.838 13.872 10.838C13.1741 10.838 12.6062 11.3905 12.6062 12.0695C12.6062 12.7485 13.1741 13.3002 13.872 13.3002ZM13.872 9.96073C12.6762 9.96073 11.7037 10.9068 11.7037 12.0702C11.7037 13.2329 12.6762 14.179 13.872 14.179C15.0671 14.179 16.0396 13.2329 16.0396 12.0702C16.0396 10.9068 15.0671 9.96073 13.872 9.96073Z" fill="#151414"/>
<defs>
<linearGradient id="paint0_linear_2641_7926" x1="34.917" y1="37.9823" x2="-9.07438" y2="32.4942" gradientUnits="userSpaceOnUse">
<stop offset="0.341164" stop-color="#FF5D50" stop-opacity="0.95"/>
<stop offset="0.75824" stop-color="#F7000B"/>
</linearGradient>
<linearGradient id="paint1_linear_2641_7926" x1="36.8154" y1="12.6156" x2="29.3474" y2="12.3617" gradientUnits="userSpaceOnUse">
<stop offset="0.341164" stop-color="#FF5D50" stop-opacity="0.95"/>
<stop offset="0.75824" stop-color="#F7000B"/>
</linearGradient>
</defs>
</svg>
