<svg width="36" height="36" viewBox="0 0 36 36" fill="none" xmlns="http://www.w3.org/2000/svg">
<path fill-rule="evenodd" clip-rule="evenodd" d="M0 24.4355H31.1472V27.7258H0V24.4355Z" fill="#1D4E89"/>
<path fill-rule="evenodd" clip-rule="evenodd" d="M16.416 24.4355H31.1472V27.7258H17.2776C16.8016 26.7133 16.5024 25.6035 16.416 24.4355Z" fill="#153964"/>
<path fill-rule="evenodd" clip-rule="evenodd" d="M10.4062 11.8567H14.3022V24.4359H10.4062V11.8567ZM17.7358 8.56641H21.6319V24.4359H17.7358V8.56641Z" fill="#219EBC"/>
<path fill-rule="evenodd" clip-rule="evenodd" d="M21.6318 15.3252V24.4347H17.7358V18.9049C18.6606 17.3726 20.0142 16.1256 21.6318 15.3252Z" fill="#187389"/>
<path fill-rule="evenodd" clip-rule="evenodd" d="M3.07666 16.9072H6.97266V24.435H3.07666V16.9072Z" fill="#219EBC"/>
<path d="M22.7409 2.49352L2.24965 15.0273C2.17809 15.0709 2.09859 15.1 2.01572 15.1129C1.93285 15.1258 1.84823 15.1224 1.76671 15.1027C1.68519 15.083 1.60836 15.0474 1.54064 14.9981C1.47292 14.9488 1.41563 14.8866 1.37205 14.8152C1.18805 14.517 1.28325 14.124 1.58485 13.9406L22.1329 1.37257L21.3049 1.40845C20.9537 1.42439 20.6561 1.15333 20.6401 0.800937C20.6241 0.450939 20.8985 0.154358 21.2505 0.138413L24.4049 0.000486864C24.7561 -0.0130666 25.0561 0.258002 25.0697 0.608C25.0769 0.723602 25.0489 0.833624 24.9993 0.929295V0.931687L23.5433 3.7229C23.3801 4.03463 22.9921 4.15661 22.6793 3.99397C22.3665 3.83132 22.2441 3.44705 22.4073 3.13532L22.7409 2.49352Z" fill="#90C962"/>
<path fill-rule="evenodd" clip-rule="evenodd" d="M25.0649 5.33887H28.9609V24.4357H25.0649V5.33887Z" fill="#219EBC"/>
<path fill-rule="evenodd" clip-rule="evenodd" d="M28.9609 14.8892V24.4356H25.0649V14.3806C25.3121 14.3622 25.5617 14.3511 25.8129 14.3511C26.9177 14.3511 27.9769 14.5416 28.9609 14.8892Z" fill="#187389"/>
<path fill-rule="evenodd" clip-rule="evenodd" d="M26.5752 33.6313C31.7664 33.6313 36 29.4122 36 24.2412C36 19.0677 31.7664 14.8486 26.5752 14.8486C21.3864 14.8486 17.1528 19.0677 17.1528 24.2412C17.1528 29.4122 21.3864 33.6313 26.5752 33.6313Z" fill="white"/>
<path d="M28.047 26.0104C27.7974 26.2591 27.3918 26.2591 27.1422 26.0104C26.8926 25.7617 26.8926 25.3574 27.1422 25.1087L29.8294 22.4307C30.079 22.182 30.4822 22.182 30.7342 22.4307C30.8541 22.5508 30.9214 22.7133 30.9214 22.8827C30.9214 23.0522 30.8541 23.2147 30.7342 23.3348L28.047 26.0104ZM24.5342 31.4366C24.1806 31.4366 23.895 31.1519 23.895 30.7995C23.895 30.4472 24.1806 30.1625 24.5342 30.1625H28.6182C28.9694 30.1625 29.2574 30.4472 29.2574 30.7995C29.2574 31.1519 28.9694 31.4366 28.6182 31.4366H24.5342Z" fill="#FB272E"/>
<path fill-rule="evenodd" clip-rule="evenodd" d="M26.5752 14.8486C31.78 14.8486 36 19.0542 36 24.2412C36 25.9585 35.5352 27.5697 34.728 28.9554L32.6824 26.5867C32.9656 25.8588 33.12 25.0679 33.12 24.2412C33.12 20.6391 30.1904 17.7188 26.5752 17.7188C22.9624 17.7188 20.0328 20.6383 20.0328 24.2412C20.0328 25.0687 20.1872 25.8596 20.4704 26.5867L18.4248 28.9554C17.6176 27.5697 17.1528 25.9585 17.1528 24.2412C17.1528 19.0542 21.3728 14.8486 26.5752 14.8486Z" fill="url(#paint0_linear_2641_7904)"/>
<path fill-rule="evenodd" clip-rule="evenodd" d="M26.5751 14.8486C26.7903 14.8486 27.0039 14.8574 27.2167 14.871V17.7188C27.2167 17.7299 27.2167 17.7395 27.2143 17.7507C27.0055 17.7307 26.7927 17.7188 26.5751 17.7188C26.3599 17.7188 26.1463 17.7299 25.9375 17.7507C25.9351 17.7395 25.9351 17.7307 25.9351 17.7188V14.871C26.1487 14.8574 26.3623 14.8486 26.5751 14.8486ZM34.3991 19.0048C34.6375 19.3548 34.8503 19.7231 35.0383 20.105L32.5623 21.5289C32.5551 21.5353 32.5463 21.54 32.5375 21.5448C32.3583 21.1558 32.1455 20.7874 31.8983 20.4446C31.9071 20.4398 31.9143 20.4334 31.9231 20.4287L34.3991 19.0048ZM21.2551 20.4446C21.0064 20.7896 20.7923 21.1582 20.6159 21.5448C20.6071 21.54 20.5975 21.5361 20.5887 21.5289L18.1143 20.105C18.3023 19.7231 18.5159 19.3548 18.7535 19.0048L21.2295 20.4287C21.2391 20.4326 21.2463 20.4398 21.2551 20.4446Z" fill="white"/>
<path fill-rule="evenodd" clip-rule="evenodd" d="M3.92577 27.7261H13.625C14.4666 27.7261 15.1538 28.4109 15.1538 29.2496V34.4749C15.1538 35.3136 14.4666 36 13.625 36H3.92577C3.08417 36 2.39697 35.3128 2.39697 34.4749V29.2488C2.39697 28.4109 3.08417 27.7261 3.92577 27.7261Z" fill="url(#paint1_linear_2641_7904)" fill-opacity="0.75"/>
<path d="M4.16309 29.9446C4.16309 29.5922 4.44869 29.3076 4.80229 29.3076C5.15589 29.3076 5.44149 29.5922 5.44149 29.9446V33.7779C5.44149 34.1302 5.15589 34.4173 4.80229 34.4173C4.44869 34.4173 4.16309 34.1302 4.16309 33.7779V29.9446ZM7.23189 33.7779C7.23189 34.1302 6.94389 34.4173 6.59029 34.4173C6.23909 34.4173 5.95109 34.1302 5.95109 33.7779V29.9446C5.95109 29.5922 6.23909 29.3076 6.59029 29.3076H7.54069C7.59749 29.3076 7.65189 29.314 7.70389 29.3283C8.11429 29.4184 8.46789 29.6449 8.72469 29.9542C8.98789 30.2731 9.14229 30.6797 9.14229 31.1134C9.14229 31.5471 8.98789 31.9521 8.72469 32.2702C8.46149 32.5891 8.09189 32.8195 7.66309 32.9057C7.62229 32.912 7.58149 32.9168 7.54069 32.9168H7.23189V33.7779ZM7.23189 30.5848V31.6428H7.46789C7.57669 31.6085 7.66949 31.5479 7.73749 31.4642C7.81669 31.3693 7.86229 31.2474 7.86229 31.1142C7.86229 30.9787 7.81669 30.8567 7.73749 30.7618C7.66949 30.6781 7.57669 30.6175 7.46789 30.5856H7.23189V30.5848ZM11.3767 29.3076C11.9735 29.3076 12.4967 29.6241 12.8647 30.1392C13.1871 30.5888 13.3863 31.1987 13.3863 31.8612C13.3863 32.5254 13.1871 33.1361 12.8647 33.5857C12.4975 34.0984 11.9735 34.4173 11.3767 34.4173C10.7799 34.4173 10.2543 34.0984 9.88869 33.5857C9.56629 33.1361 9.36709 32.5262 9.36709 31.8612C9.36709 31.1987 9.56629 30.5888 9.88869 30.1392C10.2543 29.6241 10.7807 29.3076 11.3767 29.3076ZM11.8239 30.8758C11.6967 30.6948 11.5359 30.584 11.3775 30.584C11.2167 30.584 11.0575 30.6948 10.9287 30.8758C10.7567 31.1174 10.6479 31.4658 10.6479 31.8612C10.6479 32.2567 10.7567 32.6051 10.9287 32.849C11.0583 33.03 11.2167 33.1408 11.3775 33.1408C11.5359 33.1408 11.6975 33.03 11.8239 32.849C11.9983 32.6051 12.1047 32.2567 12.1047 31.8612C12.1047 31.4658 11.9983 31.1182 11.8239 30.8758Z" fill="#A77903"/>
<path fill-rule="evenodd" clip-rule="evenodd" d="M26.5751 28.1215C27.4303 28.1215 28.1287 27.4279 28.1287 26.5756C28.1287 25.7234 27.4303 25.0273 26.5751 25.0273C25.7223 25.0273 25.0239 25.7234 25.0239 26.5756C25.0239 27.4279 25.7223 28.1215 26.5751 28.1215Z" fill="#655C5C"/>
<path d="M3.97021 30.1575C3.97021 29.8051 4.25821 29.5205 4.60941 29.5205C4.96301 29.5205 5.25101 29.8051 5.25101 30.1575V33.9908C5.25101 34.3431 4.96301 34.6278 4.60941 34.6278C4.25821 34.6278 3.97021 34.3431 3.97021 33.9908V30.1575ZM7.03901 33.99C7.03901 34.3423 6.75341 34.627 6.39981 34.627C6.04621 34.627 5.76061 34.3423 5.76061 33.99V30.1575C5.76051 30.0738 5.77697 29.991 5.80906 29.9136C5.84114 29.8363 5.88822 29.766 5.9476 29.7069C6.00697 29.6477 6.07748 29.6008 6.15508 29.5688C6.23268 29.5368 6.31584 29.5204 6.39981 29.5205H7.34781C7.40461 29.5205 7.45901 29.5269 7.51101 29.5412C7.92141 29.6313 8.27742 29.8578 8.53182 30.1671C8.79501 30.486 8.95101 30.8902 8.95101 31.3239C8.95101 31.7576 8.79422 32.1642 8.53182 32.4831C8.26941 32.802 7.89901 33.0324 7.47021 33.1162C7.42941 33.1249 7.38861 33.1297 7.34781 33.1297H7.03901V33.99ZM7.03901 30.7945V31.8525H7.27741C7.38281 31.8217 7.47665 31.7604 7.54701 31.6763C7.62381 31.5814 7.66941 31.4594 7.66941 31.3239C7.66941 31.1908 7.62381 31.0688 7.54701 30.9739C7.47901 30.8902 7.38621 30.8296 7.27741 30.7953H7.03901V30.7945ZM11.1838 29.5205C11.7806 29.5205 12.3062 29.837 12.6734 30.3497C12.9958 30.8017 13.1926 31.4116 13.1926 32.0741C13.1926 32.7383 12.995 33.349 12.6734 33.7986C12.3062 34.3112 11.7798 34.6278 11.1838 34.6278C10.587 34.6278 10.0638 34.3112 9.69581 33.7986C9.37341 33.349 9.17421 32.7391 9.17421 32.0741C9.17421 31.4116 9.37341 30.8017 9.69581 30.3497C10.0638 29.8362 10.5878 29.5205 11.1838 29.5205ZM11.6334 31.0887C11.5038 30.9077 11.3454 30.7953 11.1846 30.7953C11.0262 30.7953 10.867 30.9085 10.7382 31.0887C10.5638 31.3303 10.4574 31.6787 10.4574 32.0741C10.4574 32.4696 10.5638 32.818 10.7382 33.0619C10.8678 33.2429 11.0262 33.3537 11.1846 33.3537C11.3454 33.3537 11.5046 33.2429 11.6334 33.0619C11.8078 32.818 11.9142 32.4696 11.9142 32.0741C11.9142 31.6787 11.8078 31.3303 11.6334 31.0887Z" fill="white"/>
<defs>
<linearGradient id="paint0_linear_2641_7904" x1="26.0267" y1="14.8486" x2="35.9957" y2="31.1671" gradientUnits="userSpaceOnUse">
<stop stop-color="#FB6A3D"/>
<stop offset="1" stop-color="#F22329"/>
</linearGradient>
<linearGradient id="paint1_linear_2641_7904" x1="18.7432" y1="37.1505" x2="-2.12184" y2="34.5531" gradientUnits="userSpaceOnUse">
<stop offset="0.341164" stop-color="#FF5D50" stop-opacity="0.95"/>
<stop offset="0.75824" stop-color="#F7000B"/>
</linearGradient>
</defs>
</svg>
