<svg width="33" height="36" viewBox="0 0 33 36" fill="none" xmlns="http://www.w3.org/2000/svg">
<g clip-path="url(#clip0_2641_5528)">
<path d="M29.6382 3.59649H28.3374V2.47259C28.3374 1.1239 27.0366 0 25.4756 0H10.0393C9.43225 0 8.8252 0.149854 8.21816 0.299707H8.13144C7.69783 0.524488 7.26423 0.749268 6.83062 1.04898L1.88753 5.31981C1.54065 5.61951 1.28049 5.99415 1.02033 6.36878C1.02033 6.36878 0.933604 6.44371 0.933604 6.51863C0.673442 7.04312 0.5 7.56761 0.5 8.0921V29.8958C0.5 31.2445 1.80081 32.3684 3.36179 32.3684H4.6626V33.4923C4.6626 34.841 5.96341 35.9649 7.52439 35.9649H29.6382C31.1992 35.9649 32.5 34.841 32.5 33.4923V6.06907C32.5 4.72039 31.2859 3.59649 29.6382 3.59649ZM27.5569 3.97112V29.8958C27.5569 30.8699 26.6897 31.6191 25.5623 31.6191H3.44851C2.32114 31.6191 1.45393 30.8699 1.45393 29.8958V8.0921C1.45393 7.71746 1.54065 7.34283 1.71409 6.9682H6.48374C7.78455 6.9682 8.8252 6.06907 8.8252 4.94517V0.974049C9.17209 0.824195 9.60569 0.749268 10.0393 0.749268H25.5623C26.6897 0.749268 27.5569 1.49854 27.5569 2.47259V3.97112Z" fill="#ED1C24" fill-opacity="0.7"/>
<path d="M11.4228 2.69727H16.1039C16.364 2.69727 16.5373 2.54741 16.5373 2.32263C16.5373 2.09785 16.364 1.948 16.1039 1.948H11.4228C11.1627 1.948 10.9893 2.09785 10.9893 2.32263C10.9893 2.54741 11.1627 2.69727 11.4228 2.69727ZM18.1844 2.69727H19.0513C19.3114 2.69727 19.4847 2.54741 19.4847 2.32263C19.4847 2.09785 19.3114 1.948 19.138 1.948H18.2711C18.011 1.948 17.8377 2.09785 17.8377 2.32263C17.8377 2.54741 18.011 2.69727 18.1844 2.69727ZM6.56825 11.5386V15.285C6.56825 15.5098 6.39488 15.6596 6.13481 15.6596H3.96762C3.70756 15.6596 3.53418 15.5098 3.53418 15.285V11.5386C3.53418 11.3139 3.70756 11.164 3.96762 11.164H6.13481C6.39488 11.164 6.56825 11.3888 6.56825 11.5386ZM11.3361 13.0372V15.3599C11.3361 15.5847 11.1627 15.7345 10.9026 15.7345H8.64876C8.3887 15.7345 8.21532 15.5847 8.21532 15.3599V13.0372C8.21532 12.8124 8.3887 12.6625 8.64876 12.6625H10.9026C11.076 12.6625 11.3361 12.8124 11.3361 13.0372ZM16.0172 10.5646V15.3599C16.0172 15.5847 15.8438 15.7345 15.5838 15.7345H13.4166C13.1565 15.7345 12.9831 15.5847 12.9831 15.3599V10.5646C12.9831 10.3398 13.1565 10.1899 13.4166 10.1899H15.5838C15.8438 10.1899 16.0172 10.3398 16.0172 10.5646ZM20.6984 12.3628V15.3599C20.6984 15.5847 20.525 15.7345 20.2649 15.7345H18.0977C17.8377 15.7345 17.6643 15.5847 17.6643 15.3599V12.3628C17.6643 12.138 17.8377 11.9882 18.0977 11.9882H20.2649C20.525 11.9882 20.6984 12.138 20.6984 12.3628ZM25.4662 11.0891V15.285C25.4662 15.5098 25.2928 15.6596 25.0328 15.6596H22.8656C22.6055 15.6596 22.4321 15.5098 22.4321 15.285V11.0891C22.4321 10.8643 22.6055 10.7144 22.8656 10.7144H25.0328C25.2061 10.7144 25.4662 10.9392 25.4662 11.0891ZM14.0234 19.4809C12.8965 18.5068 11.4228 17.9823 9.86238 17.9823C8.73545 17.9823 7.60851 18.282 6.56825 18.8065C5.78806 19.2561 5.09456 19.9304 4.66112 20.6797C4.22768 21.429 3.96762 22.2532 3.96762 23.0774C3.96762 25.9246 6.56825 28.1724 9.86238 28.1724C12.3763 28.1724 14.6302 26.7488 15.4104 24.6508C15.6705 24.0514 15.7572 23.5269 15.7572 23.0774C15.7572 21.7287 15.1503 20.4549 14.0234 19.4809ZM13.0698 19.7806L9.94907 22.4779L7.43513 19.2561C9.25557 18.4319 11.5095 18.6567 13.0698 19.7806ZM14.7169 24.0514L10.6426 22.8526L13.6766 20.2301C14.4568 20.9794 14.8903 22.0284 14.8903 23.0024C14.8903 23.3771 14.8036 23.7517 14.7169 24.0514ZM25.0328 18.5068H18.6179C18.3578 18.5068 18.1844 18.6567 18.1844 18.8815C18.1844 19.1062 18.3578 19.2561 18.6179 19.2561H25.0328C25.2928 19.2561 25.4662 19.1062 25.4662 18.8815C25.4662 18.6567 25.2061 18.5068 25.0328 18.5068ZM25.0328 20.6048H18.6179C18.3578 20.6048 18.1844 20.7546 18.1844 20.9794C18.1844 21.2042 18.3578 21.354 18.6179 21.354H25.0328C25.2928 21.354 25.4662 21.2042 25.4662 20.9794C25.4662 20.7546 25.2061 20.6048 25.0328 20.6048ZM25.0328 22.7027H18.6179C18.3578 22.7027 18.1844 22.8526 18.1844 23.0774C18.1844 23.3021 18.3578 23.452 18.6179 23.452H25.0328C25.2928 23.452 25.4662 23.3021 25.4662 23.0774C25.4662 22.8526 25.2061 22.7027 25.0328 22.7027ZM25.0328 24.8007H18.6179C18.3578 24.8007 18.1844 24.9505 18.1844 25.1753C18.1844 25.4001 18.3578 25.5499 18.6179 25.5499H25.0328C25.2928 25.5499 25.4662 25.4001 25.4662 25.1753C25.4662 24.9505 25.2061 24.8007 25.0328 24.8007ZM25.0328 26.8986H18.6179C18.3578 26.8986 18.1844 27.0485 18.1844 27.2733C18.1844 27.498 18.3578 27.6479 18.6179 27.6479H25.0328C25.2928 27.6479 25.4662 27.498 25.4662 27.2733C25.4662 27.0485 25.2061 26.8986 25.0328 26.8986Z" fill="#09242F"/>
</g>
<defs>
<clipPath id="clip0_2641_5528">
<rect width="32" height="36" fill="white" transform="translate(0.5)"/>
</clipPath>
</defs>
</svg>
