<svg width="33" height="29" viewBox="0 0 33 29" fill="none" xmlns="http://www.w3.org/2000/svg">
<path d="M31.5 28.0001H1.5L7.33969 5.29736H25.6603L31.5 28.0001Z" fill="#E9F2FF" stroke="#ADADAD"/>
<path d="M25.6607 5.29736H22.6426L28.4823 28.0001H31.5004L25.6607 5.29736Z" fill="#DEEBFF"/>
<path d="M21.391 9.18262H10.5473C10.4272 9.18262 10.3121 9.22713 10.2272 9.30637C10.1423 9.38561 10.0946 9.49307 10.0946 9.60513C10.0946 9.71719 10.1423 9.82466 10.2272 9.9039C10.3121 9.98313 10.4272 10.0276 10.5473 10.0276H21.3911C21.4505 10.0276 21.5094 10.0167 21.5643 9.99548C21.6193 9.97424 21.6692 9.94311 21.7112 9.90388C21.7532 9.86464 21.7866 9.81806 21.8093 9.7668C21.8321 9.71553 21.8438 9.66059 21.8438 9.60511C21.8438 9.54962 21.832 9.49468 21.8093 9.44342C21.7865 9.39216 21.7532 9.34558 21.7111 9.30635C21.6691 9.26712 21.6192 9.236 21.5643 9.21477C21.5094 9.19354 21.4505 9.18261 21.391 9.18262ZM19.955 12.6842H9.94363C9.82357 12.6842 9.70843 12.7287 9.62353 12.808C9.53863 12.8872 9.49094 12.9947 9.49094 13.1067C9.49094 13.2188 9.53863 13.3262 9.62353 13.4055C9.70843 13.4847 9.82357 13.5292 9.94363 13.5292H19.955C20.075 13.5292 20.1902 13.4847 20.2751 13.4055C20.36 13.3262 20.4077 13.2188 20.4077 13.1067C20.4077 12.9947 20.36 12.8872 20.2751 12.808C20.1902 12.7287 20.075 12.6842 19.955 12.6842ZM18.6927 16.1857H9.2193C9.09923 16.1857 8.98409 16.2302 8.89919 16.3095C8.8143 16.3887 8.7666 16.4962 8.7666 16.6082C8.7666 16.7203 8.8143 16.8278 8.89919 16.907C8.98409 16.9862 9.09923 17.0308 9.2193 17.0308H18.6927C18.8128 17.0308 18.9279 16.9862 19.0128 16.907C19.0977 16.8278 19.1454 16.7203 19.1454 16.6082C19.1454 16.4962 19.0977 16.3887 19.0128 16.3095C18.9279 16.2302 18.8128 16.1857 18.6927 16.1857Z" fill="#38393C"/>
<path d="M8.17384 24.4899C8.57008 23.863 8.97533 23.2411 9.38949 22.6243C9.69552 22.1683 10.0057 21.714 10.3337 21.2714C10.4481 21.1172 10.5867 20.9336 10.6711 20.838C10.7345 20.766 10.7969 20.692 10.8808 20.6409C10.9599 20.5927 11.0013 20.5808 11.046 20.6066C10.9994 20.5797 11.0655 20.6576 11.079 20.6909C11.1408 20.8433 11.1034 21.0317 11.0894 21.1885C11.0592 21.5265 11.0175 21.8635 10.9842 22.2012C10.9258 22.7931 10.7584 23.7019 11.4603 24.0208C11.8495 24.1976 12.2586 24.0001 12.6041 23.8239C12.9602 23.6422 13.2957 23.4616 13.6707 23.3181C13.7747 23.2783 13.8207 23.294 13.6667 23.2605C13.6013 23.2462 13.6539 23.1865 13.6525 23.2542C13.6509 23.3287 13.7498 23.4735 13.7772 23.5559C13.8597 23.8046 13.9301 24.0671 14.0703 24.2946C14.6592 25.2502 16.3199 24.914 17.2316 24.6341C17.7826 24.4648 17.5466 23.6485 16.9909 23.8192C16.6411 23.9266 16.2713 24.0075 15.9053 24.0444C15.6389 24.0712 15.3455 24.0914 15.0855 24.017C14.8848 23.9595 14.8381 23.8751 14.7666 23.6813C14.5993 23.2273 14.4788 22.4785 13.8214 22.4497C13.4368 22.4328 13.0311 22.6286 12.703 22.797C12.5158 22.893 12.3346 22.9987 12.1472 23.0942C12.0652 23.1361 11.9823 23.18 11.8961 23.2137C11.7193 23.2829 11.864 23.239 11.8576 23.2639C11.882 23.168 11.842 23.0138 11.8446 22.9095C11.8488 22.7432 11.8575 22.577 11.8708 22.4111C11.897 22.0835 11.9396 21.7573 11.9721 21.4303C12.0335 20.8135 12.043 19.9743 11.2394 19.7791C10.6166 19.6278 10.1576 20.0742 9.82209 20.4927C9.49765 20.8974 9.20334 21.3238 8.91177 21.7493C8.38964 22.5114 7.88433 23.2841 7.3922 24.0634C7.09548 24.5329 7.87783 24.9586 8.17384 24.4899ZM26.3639 3.10425L29.1269 4.0149L22.764 20.8323L20.0009 19.9217L26.3639 3.10425Z" fill="url(#paint0_linear_2641_7847)"/>
<path d="M29.6837 2.77446L26.7621 1.81196C26.287 1.65545 25.7659 1.88803 25.5982 2.33149C25.4305 2.77495 25.6797 3.26134 26.1548 3.41786L28.216 4.09692L25.7446 10.6315C25.577 11.0749 25.8262 11.5613 26.3013 11.7178C26.7764 11.8743 27.2976 11.6418 27.4653 11.1983L30.2403 3.86083C30.4081 3.41737 30.1588 2.93098 29.6837 2.77446Z" fill="url(#paint1_linear_2641_7847)" fill-opacity="0.95"/>
<path d="M21.0048 21.3793C20.9488 21.3609 20.8894 21.3529 20.83 21.3558C20.7706 21.3588 20.7124 21.3726 20.6588 21.3966C20.6052 21.4205 20.5571 21.4541 20.5174 21.4953C20.4776 21.5366 20.447 21.5848 20.4272 21.6371L19.5181 24.0409C19.4939 24.1047 19.4865 24.1729 19.4965 24.2398C19.5064 24.3068 19.5335 24.3705 19.5753 24.4257C19.6171 24.4809 19.6725 24.5259 19.7369 24.557C19.8012 24.5881 19.8726 24.6043 19.945 24.6043C20.0386 24.6042 20.13 24.5771 20.2065 24.5266C20.2829 24.4761 20.3407 24.4047 20.3719 24.3223L21.281 21.9185C21.321 21.8128 21.3143 21.6966 21.2625 21.5955C21.2107 21.4944 21.118 21.4167 21.0048 21.3793Z" fill="url(#paint2_linear_2641_7847)" fill-opacity="0.75"/>
<path d="M21.1487 23.1958L19.6709 22.7089L20.0037 19.9185L22.7666 20.8287L21.1487 23.1958Z" fill="url(#paint3_linear_2641_7847)" fill-opacity="0.95"/>
<path d="M29.1651 2.60375L27.2803 1.98278L27.7947 0.622536C27.9784 0.136747 28.5493 -0.118042 29.0698 0.0534577C29.5903 0.224903 29.8633 0.757723 29.6795 1.24351L29.1651 2.60375Z" fill="black"/>
<defs>
<linearGradient id="paint0_linear_2641_7847" x1="21.5" y1="26.4998" x2="10.0589" y2="5.42555" gradientUnits="userSpaceOnUse">
<stop offset="0.159967" stop-color="#FF5D50" stop-opacity="0.95"/>
<stop offset="0.626903" stop-color="#F7000B"/>
</linearGradient>
<linearGradient id="paint1_linear_2641_7847" x1="31.0112" y1="14.2377" x2="23.8968" y2="13.1673" gradientUnits="userSpaceOnUse">
<stop stop-color="#FF5D50"/>
<stop offset="0.9" stop-color="#F7000B"/>
</linearGradient>
<linearGradient id="paint2_linear_2641_7847" x1="21.8174" y1="25.056" x2="18.8095" y2="24.9204" gradientUnits="userSpaceOnUse">
<stop offset="0.341164" stop-color="#FF5D50" stop-opacity="0.95"/>
<stop offset="0.75824" stop-color="#F7000B"/>
</linearGradient>
<linearGradient id="paint3_linear_2641_7847" x1="23.2352" y1="24.0053" x2="18.881" y2="22.7012" gradientUnits="userSpaceOnUse">
<stop stop-color="#FF5D50"/>
<stop offset="0.9" stop-color="#F7000B"/>
</linearGradient>
</defs>
</svg>

