<svg width="31" height="30" viewBox="0 0 31 30" fill="none" xmlns="http://www.w3.org/2000/svg">
<g clip-path="url(#clip0_2641_5551)">
<path d="M24.7579 5.92553V28.2421C24.7579 28.8895 24.2332 29.4141 23.5859 29.4141H2.25781C1.61053 29.4141 1.08594 28.8895 1.08594 28.2421V1.75781C1.08594 1.11053 1.61053 0.585938 2.25781 0.585938H19.4258L24.7579 5.92553Z" fill="white"/>
<path d="M23.6427 13.9417H29.1249C29.5609 13.9417 29.914 14.295 29.914 14.7308V28.6249C29.914 29.0607 29.5609 29.4141 29.1249 29.4141H23.6427C23.2069 29.4141 22.8535 29.0607 22.8535 28.6249V14.7308C22.8535 14.2951 23.2068 13.9417 23.6427 13.9417Z" fill="#C9F3FF"/>
<path d="M22.8535 16.2854H27.5703V18.6292H22.8535V16.2854Z" fill="#F7000B" fill-opacity="0.85"/>
<path d="M19.4258 0.593506V4.73831C19.4258 5.39386 19.9572 5.92554 20.613 5.92554H24.7578L19.4258 0.593506Z" fill="#C9F3FF"/>
<path d="M4.30789 26.836H16.1446C16.4682 26.836 16.7305 26.5736 16.7305 26.25C16.7305 25.9265 16.4682 25.6641 16.1446 25.6641H4.30789C3.98445 25.6641 3.72195 25.9265 3.72195 26.25C3.72195 26.5736 3.98445 26.836 4.30789 26.836ZM4.30789 23.5547C4.46217 23.5547 4.61323 23.492 4.72215 23.3831C4.83113 23.2741 4.89383 23.1228 4.89383 22.9688C4.89383 22.8147 4.83137 22.6635 4.72215 22.5545C4.61203 22.445 4.46319 22.3834 4.30789 22.3829C4.15385 22.3829 4.00262 22.4456 3.89387 22.5545C3.78471 22.6635 3.72195 22.8147 3.72195 22.9688C3.72195 23.1228 3.78465 23.2741 3.89387 23.3831C4.0039 23.4926 4.15266 23.5542 4.30789 23.5547ZM16.1446 22.3829H6.88672C6.56311 22.3829 6.30078 22.6452 6.30078 22.9688C6.30078 23.2924 6.56311 23.5547 6.88672 23.5547H16.1446C16.4682 23.5547 16.7305 23.2924 16.7305 22.9688C16.7305 22.6452 16.4682 22.3829 16.1446 22.3829ZM16.1446 19.1016H4.25C3.92639 19.1016 3.66406 19.364 3.66406 19.6875C3.66406 20.0111 3.92639 20.2735 4.25 20.2735H16.1446C16.4682 20.2735 16.7305 20.0111 16.7305 19.6875C16.7305 19.364 16.4682 19.1016 16.1446 19.1016ZM3.89387 15.992C3.78471 16.101 3.72195 16.2522 3.72195 16.4063C3.72195 16.5603 3.78465 16.7116 3.89387 16.8206C4.0039 16.9301 4.15266 16.9917 4.30789 16.9922C4.46217 16.9922 4.61323 16.9295 4.72215 16.8206C4.83113 16.7116 4.89383 16.561 4.89383 16.4063C4.89383 16.2522 4.83137 16.101 4.72215 15.992C4.61203 15.8825 4.46319 15.8209 4.30789 15.8204C4.15385 15.8204 4.00262 15.8831 3.89387 15.992ZM16.1446 15.8204H6.88672C6.56311 15.8204 6.30078 16.0827 6.30078 16.4063C6.30078 16.7299 6.56311 16.9922 6.88672 16.9922H16.1446C16.4682 16.9922 16.7305 16.7299 16.7305 16.4063C16.7305 16.0827 16.4682 15.8204 16.1446 15.8204ZM7.38201 7.02034H4.25C3.92639 7.02034 3.66406 7.28261 3.66406 7.60629C3.66406 7.92992 3.92639 8.19219 4.25 8.19219H5.2301V12.5746C5.2301 12.8982 5.49236 13.1605 5.81604 13.1605C6.13965 13.1605 6.40198 12.8982 6.40198 12.5746V8.19219H7.38201C7.70569 8.19219 7.96795 7.92992 7.96795 7.60629C7.96795 7.28266 7.70569 7.02034 7.38201 7.02034ZM8.30375 13.1143C8.44677 13.175 8.60803 13.1764 8.7521 13.1182C8.89618 13.0601 9.0113 12.9471 9.07212 12.8041L9.44653 11.9223H11.8077L12.1821 12.8041C12.3087 13.1019 12.6525 13.2409 12.9504 13.1143C13.2483 12.9877 13.3872 12.6437 13.2606 12.3459L11.1664 7.41491C11.1214 7.30902 11.0464 7.21869 10.9505 7.15519C10.8546 7.09169 10.7422 7.05783 10.6271 7.05783C10.5121 7.05783 10.3996 7.09169 10.3037 7.15519C10.2079 7.21869 10.1328 7.30902 10.0879 7.41491L7.99338 12.3459C7.867 12.644 8.006 12.9879 8.30375 13.1143ZM10.6271 9.14274L11.3098 10.7504H9.94438L10.6271 9.14274ZM17.8799 7.11069C17.6064 6.93743 17.2445 7.01846 17.0713 7.29174L15.9894 8.99739L14.9076 7.29174C14.7344 7.01846 14.3725 6.93743 14.099 7.11069C13.8258 7.28395 13.7447 7.64604 13.918 7.91934L15.2956 10.0916L13.918 12.2637C13.7447 12.5371 13.8258 12.8992 14.099 13.0724C14.1927 13.132 14.3014 13.1636 14.4124 13.1635C14.6063 13.1635 14.7962 13.0674 14.9076 12.8914L15.9893 11.1857L17.0713 12.8914C17.1241 12.9749 17.1973 13.0436 17.2839 13.0912C17.3705 13.1387 17.4678 13.1636 17.5666 13.1635C17.674 13.1635 17.7824 13.1342 17.8799 13.0724C18.1532 12.8992 18.2342 12.5371 18.061 12.2638L16.6833 10.0915L18.061 7.91942C18.2342 7.64604 18.1532 7.28395 17.8799 7.11069Z" fill="black"/>
<path d="M28.9179 13.3558H19.6602C18.7878 13.3558 18.0781 14.0655 18.0781 14.9377V28.4179C18.0781 28.5598 18.0971 28.6973 18.1324 28.8281H2.25781C1.93461 28.8281 1.67188 28.5654 1.67188 28.2421V1.75781C1.67188 1.43461 1.93461 1.17188 2.25781 1.17188H18.8398V4.7383C18.8398 5.71588 19.6352 6.51146 20.613 6.51146H24.1719V11.3363C24.1719 11.66 24.4342 11.9222 24.7579 11.9222C25.0814 11.9222 25.3438 11.66 25.3438 11.3363V5.92553H25.3424C25.3424 5.77307 25.2842 5.62319 25.1721 5.51104L19.84 0.179004C19.7274 0.0663867 19.5766 0.00849607 19.4234 0.00890625C19.4244 0.00574219 19.4248 0.00322265 19.4258 0H2.25781C1.2885 0 0.5 0.788497 0.5 1.75781V28.2421C0.5 29.2115 1.2885 30 2.25781 30H28.9179C29.7903 30 30.5 29.2903 30.5 28.4179V14.9377C30.5 14.0655 29.7903 13.3558 28.9179 13.3558ZM20.613 5.33947C20.2814 5.33947 20.0117 5.06965 20.0117 4.7383V2.00801L23.3431 5.33959L20.613 5.33947ZM29.3281 28.4179C29.3281 28.6441 29.1441 28.8281 28.9179 28.8281H19.6602C19.434 28.8281 19.25 28.6441 19.25 28.4179V14.9377C19.25 14.7116 19.434 14.5276 19.6602 14.5276H28.9179C29.1441 14.5276 29.3281 14.7116 29.3281 14.9377V28.4179Z" fill="#CC0A13"/>
<path d="M27.5703 15.6995H21.0078C20.6842 15.6995 20.4219 15.9617 20.4219 16.2854V18.6292C20.4219 18.9528 20.6842 19.2151 21.0078 19.2151H27.5703C27.8939 19.2151 28.1562 18.9528 28.1562 18.6292V16.2854C28.1562 15.9617 27.8939 15.6995 27.5703 15.6995ZM26.9844 18.0432H21.5938V16.8713H26.9844V18.0432ZM21.7109 20.8557H21.0078C20.6842 20.8557 20.4219 21.118 20.4219 21.4417C20.4219 21.7653 20.6842 22.0276 21.0078 22.0276H21.7109C22.0345 22.0276 22.2969 21.7653 22.2969 21.4417C22.2969 21.1181 22.0345 20.8557 21.7109 20.8557ZM24.6406 20.8557H23.9375C23.6139 20.8557 23.3516 21.118 23.3516 21.4417C23.3516 21.7653 23.6139 22.0276 23.9375 22.0276H24.6406C24.9643 22.0276 25.2266 21.7653 25.2266 21.4417C25.2266 21.1181 24.9643 20.8557 24.6406 20.8557ZM27.5703 20.8557H26.8672C26.5436 20.8557 26.2812 21.118 26.2812 21.4417C26.2812 21.7653 26.5436 22.0276 26.8672 22.0276H27.5703C27.8939 22.0276 28.1562 21.7653 28.1562 21.4417C28.1562 21.1181 27.8939 20.8557 27.5703 20.8557ZM21.7109 23.6682H21.0078C20.6842 23.6682 20.4219 23.9305 20.4219 24.2542C20.4219 24.5778 20.6842 24.8401 21.0078 24.8401H21.7109C22.0345 24.8401 22.2969 24.5778 22.2969 24.2542C22.2969 23.9306 22.0345 23.6682 21.7109 23.6682ZM24.6406 23.6682H23.9375C23.6139 23.6682 23.3516 23.9305 23.3516 24.2542C23.3516 24.5778 23.6139 24.8401 23.9375 24.8401H24.6406C24.9643 24.8401 25.2266 24.5778 25.2266 24.2542C25.2266 23.9306 24.9643 23.6682 24.6406 23.6682ZM27.5703 23.6682H26.8672C26.5436 23.6682 26.2812 23.9305 26.2812 24.2542C26.2812 24.5778 26.5436 24.8401 26.8672 24.8401H27.5703C27.8939 24.8401 28.1562 24.5778 28.1562 24.2542C28.1562 23.9306 27.8939 23.6682 27.5703 23.6682ZM21.7109 26.4807H21.0078C20.6842 26.4807 20.4219 26.743 20.4219 27.0667C20.4219 27.3903 20.6842 27.6526 21.0078 27.6526H21.7109C22.0345 27.6526 22.2969 27.3903 22.2969 27.0667C22.2969 26.7431 22.0345 26.4807 21.7109 26.4807ZM24.6406 26.4807H23.9375C23.6139 26.4807 23.3516 26.743 23.3516 27.0667C23.3516 27.3903 23.6139 27.6526 23.9375 27.6526H24.6406C24.9643 27.6526 25.2266 27.3903 25.2266 27.0667C25.2266 26.7431 24.9643 26.4807 24.6406 26.4807ZM27.5703 26.4807H26.8672C26.5436 26.4807 26.2812 26.743 26.2812 27.0667C26.2812 27.3903 26.5436 27.6526 26.8672 27.6526H27.5703C27.8939 27.6526 28.1562 27.3903 28.1562 27.0667C28.1562 26.7431 27.8939 26.4807 27.5703 26.4807Z" fill="black"/>
</g>
<defs>
<clipPath id="clip0_2641_5551">
<rect width="30" height="30" fill="white" transform="translate(0.5)"/>
</clipPath>
</defs>
</svg>
