<svg width="41" height="40" viewBox="0 0 41 40" fill="none" xmlns="http://www.w3.org/2000/svg">
<path d="M4.52686 16H0.526855C0.526855 7.16333 7.69019 0 17.8602 0V16H15.1935" fill="#CC0A13"/>
<path d="M15.1931 14.0001V0.172119C7.19643 1.20879 1.55176 6.87679 0.655762 14.0001H15.1931Z" fill="#CC0A13"/>
<path d="M31.8602 31.9993L20.5269 20.666V4.66602C23.6914 4.6659 26.785 5.60422 29.4163 7.36232C32.0476 9.12041 34.0984 11.6193 35.3095 14.543C36.5205 17.4667 36.8374 20.6838 36.22 23.7876C35.6026 26.8914 34.0786 29.7424 31.8409 31.98L31.8602 31.9993Z" fill="#D9D9D9"/>
<path d="M31.8602 31.9993L20.5269 20.666H4.52686C4.52674 23.8306 5.46506 26.9242 7.22316 29.5554C8.98125 32.1867 11.4802 34.2376 14.4038 35.4486C17.3275 36.6597 20.5447 36.9765 23.6485 36.3591C26.7522 35.7417 29.6032 34.2178 31.8409 31.98L31.8602 31.9993Z" fill="#CC0A13"/>
<path d="M31.8602 31.9993L20.5269 20.666H4.52686C4.52674 23.8306 5.46506 26.9242 7.22316 29.5554C8.98125 32.1867 11.4802 34.2376 14.4038 35.4486C17.3275 36.6597 20.5447 36.9765 23.6485 36.3591C26.7522 35.7417 29.6032 34.2178 31.8409 31.98L31.8602 31.9993Z" fill="#3B5892"/>
<path d="M32.5269 10.0887C31.0276 8.38304 29.1817 7.01701 27.1123 6.08187C25.0429 5.14673 22.7977 4.66403 20.5269 4.66602V20.666L28.0449 28.184H32.5269V10.0887Z" fill="#D9D9D9"/>
<path d="M20.5269 20.666H4.52687C4.52384 23.2881 5.168 25.8705 6.4022 28.184H28.0449L20.5269 20.666Z" fill="#4C6CB5"/>
<path d="M12.5269 26.666H36.5269V37.3327H12.5269V26.666Z" fill="#4D8C28"/>
<path d="M12.5269 29.3327H13.8602C14.2138 29.3327 14.5529 29.1922 14.803 28.9422C15.053 28.6921 15.1935 28.353 15.1935 27.9993V26.666H12.5269V29.3327ZM15.1935 37.3327V35.9993C15.1935 35.6457 15.053 35.3066 14.803 35.0565C14.5529 34.8065 14.2138 34.666 13.8602 34.666H12.5269V37.3327H15.1935Z" fill="#6BC13B"/>
<path d="M16.5269 29.334H40.5269V40.0007H16.5269V29.334Z" fill="#4D8C28"/>
<path d="M16.5269 29.334H39.1935V38.6673H16.5269V29.334Z" fill="#72E331"/>
<path d="M34.5272 32H22.5272C21.7908 32 21.1938 32.597 21.1938 33.3333V36C21.1938 36.7364 21.7908 37.3333 22.5272 37.3333H34.5272C35.2636 37.3333 35.8605 36.7364 35.8605 36V33.3333C35.8605 32.597 35.2636 32 34.5272 32Z" fill="#E2E7F6"/>
<path d="M22.5272 32C22.1736 32 21.8344 32.1405 21.5844 32.3905C21.3343 32.6406 21.1938 32.9797 21.1938 33.3333V36C21.1945 36.1887 21.2354 36.3751 21.3138 36.5467C21.4855 36.6251 21.6718 36.666 21.8605 36.6667H33.8605C34.2141 36.6667 34.5533 36.5262 34.8033 36.2761C35.0534 36.0261 35.1938 35.687 35.1938 35.3333V32.6667C35.1932 32.478 35.1523 32.2916 35.0738 32.12C34.9022 32.0416 34.7159 32.0007 34.5272 32H22.5272Z" fill="#F7FAFD"/>
<path d="M40.5269 32.0013H39.1935C38.8399 32.0013 38.5008 31.8608 38.2507 31.6108C38.0007 31.3607 37.8602 31.0216 37.8602 30.668V29.3346H40.5269V32.0013ZM36.5269 29.3346H35.1935C34.8399 29.3346 34.5008 29.1942 34.2507 28.9441C34.0007 28.6941 33.8602 28.3549 33.8602 28.0013V26.668H36.5269V29.3346ZM37.8602 40.0013V38.668C37.8602 38.3143 38.0007 37.9752 38.2507 37.7252C38.5008 37.4751 38.8399 37.3346 39.1935 37.3346H40.5269V40.0013H37.8602ZM16.5269 32.0013H17.8602C18.2138 32.0013 18.5529 31.8608 18.803 31.6108C19.053 31.3607 19.1935 31.0216 19.1935 30.668V29.3346H16.5269V32.0013ZM19.1935 40.0013V38.668C19.1935 38.3143 19.053 37.9752 18.803 37.7252C18.5529 37.4751 18.2138 37.3346 17.8602 37.3346H16.5269V40.0013H19.1935Z" fill="#6BC13B"/>
<path d="M24.5269 14H25.8602V19.3333H24.5269V14Z" fill="#4C6CB5"/>
<path d="M24.5269 14H25.1935V19.3333H24.5269V14Z" fill="#547DD1"/>
<path d="M29.8599 14H31.1932V19.3333H29.8599V14Z" fill="#4C6CB5"/>
<path d="M29.8599 14H30.5265V19.3333H29.8599V14Z" fill="#547DD1"/>
<path d="M32.5272 14H23.1938L27.8605 10L32.5272 14Z" fill="#5E87CA"/>
<path d="M27.1938 14H28.5272V19.3333H27.1938V14Z" fill="#4C6CB5"/>
<path d="M27.1938 14H27.8605V19.3333H27.1938V14Z" fill="#547DD1"/>
<path d="M30.5269 21.334H34.5269V22.6673H30.5269V21.334ZM26.5269 21.334H29.1935V22.6673H26.5269V21.334Z" fill="#5E87CA"/>
<path d="M12.5269 4.66602H15.1935V17.9993H12.5269V4.66602Z" fill="#5E87CA"/>
<path d="M12.5269 4.66602H13.8602V15.9993H12.5269V4.66602Z" fill="#6A9CE5"/>
<path d="M9.85986 7.33398H12.5265V18.0007H9.85986V7.33398Z" fill="#4C6CB5"/>
<path d="M9.85986 7.33398H11.1932V16.0007H9.85986V7.33398Z" fill="#547DD1"/>
<path d="M7.19385 10H9.86051V18H7.19385V10Z" fill="#3B5892"/>
<path d="M7.19385 10H8.52718V16H7.19385V10Z" fill="#476FAD"/>
<path d="M4.52686 14H7.19352V18H4.52686V14Z" fill="#213D68"/>
<path d="M4.52686 14H5.86019V16H4.52686V14Z" fill="#3B5892"/>
<path d="M23.1938 18.666H32.5272V19.9993H23.1938V18.666Z" fill="#213D68"/>
<path d="M23.1938 18.666H31.8605V19.3327H23.1938V18.666Z" fill="#3B5892"/>
<path d="M23.9712 13.3333H30.5265V12.286L27.8599 10L23.9712 13.3333Z" fill="#6A9CE5"/>
<path d="M27.5346 32.3026C27.6115 32.4418 27.6836 32.6692 27.6926 33.0068L27.7215 34.1021L27.9432 34.0956L28.3287 34.5853L27.7347 34.6029L27.7722 36.0215C27.7751 36.1327 27.8093 36.2327 27.8751 36.3213C27.9409 36.4098 28.0449 36.4518 28.1874 36.4475C28.3721 36.4421 28.564 36.3009 28.7624 36.0234C28.9663 35.7388 29.0694 35.4508 29.0723 35.1584L28.9776 35.1716C28.6399 35.1816 28.4648 34.9503 28.4523 34.4772C28.4481 34.3171 28.4841 34.1736 28.56 34.0462C28.6358 33.9187 28.7662 33.8521 28.9509 33.8466C29.146 33.8408 29.3128 33.9472 29.4504 34.1658C29.5936 34.3841 29.6694 34.6534 29.6779 34.9733C29.6904 35.4463 29.5492 35.9026 29.2544 36.3427C28.9649 36.7827 28.3954 37.0152 28.1947 37.0212C27.8739 37.0307 27.7476 36.9513 27.6404 36.8595C27.5332 36.7677 27.3895 36.5459 27.382 36.2622L27.3385 34.6141L26.9584 34.6254L26.5809 34.1355L27.3253 34.1134L27.2991 33.1224C27.2933 32.9009 27.1223 32.7853 27.0124 32.7762C26.945 32.7702 26.8729 32.7976 26.8476 32.8335C26.7972 32.7306 26.7493 32.6069 26.703 32.4618C26.703 32.4618 26.7359 32.2842 26.8539 32.1754C26.9356 32.1002 27.0138 32.0766 27.1365 32.073C27.3707 32.0661 27.4822 32.2072 27.5346 32.3026Z" fill="#387C10"/>
</svg>
