<svg width="29" height="28" viewBox="0 0 29 28" fill="none" xmlns="http://www.w3.org/2000/svg">
<path d="M20.371 8.68456V8.68908C20.0278 8.70263 19.6936 8.77037 19.3684 8.88779L17.6613 9.5065V4.96779H20.371V8.68456ZM18.533 18.6471L18.113 20.3226L17.2097 20.5033L15.8504 20.7742C14.4188 21.0633 13.1813 21.9529 12.4542 23.222C12.0207 23.9852 11.7904 24.8478 11.7904 25.7284V27.5484H0.95166V0.45166H15.8549V4.06456H3.66134V11.2904H15.0826C14.9968 11.5252 14.9517 11.7736 14.9517 12.031C14.9517 12.2071 14.9742 12.3878 15.0194 12.5594L15.3807 13.9142C15.2478 14.0382 15.1413 14.1877 15.0675 14.3537C14.9937 14.5198 14.9541 14.699 14.9511 14.8807C14.9482 15.0625 14.9819 15.2429 15.0503 15.4113C15.1187 15.5796 15.2203 15.7325 15.3491 15.8607C15.593 16.1046 15.9317 16.2581 16.3065 16.2581H16.7942C16.8936 16.9491 17.2142 17.5678 17.6839 18.0375L18.533 18.6471Z" fill="#E6E9ED"/>
<path d="M20.3711 4.96779H15.855V0.45166L20.3711 4.96779Z" fill="white"/>
<path d="M15.0779 11.2903H3.66113V4.06445H15.8547V4.96768H17.6611V9.50639L16.3966 9.96703C15.9631 10.1251 15.6018 10.4096 15.3489 10.7709C15.236 10.929 15.1456 11.1051 15.0824 11.2903H15.0779Z" fill="url(#paint0_linear_2641_5599)"/>
<path d="M24.4357 27.5486H11.7905V25.7286C11.7905 24.8479 12.0208 23.9854 12.4544 23.2221C13.1815 21.9531 14.4189 21.0634 15.8505 20.7744L17.2099 20.5034L17.6615 23.4841L19.9196 22.1292L22.1776 23.4841L22.6292 20.5034L23.9886 20.7744C25.4202 21.0634 26.6576 21.9531 27.3847 23.2221C27.8183 23.9854 28.0486 24.8479 28.0486 25.7286V27.5486H24.4357Z" fill="#FF826E"/>
<path d="M22.6288 20.5034L22.1772 23.484L19.9192 22.1292L21.7256 20.3228L22.6288 20.5034ZM19.9192 22.1292L17.6611 23.484L17.2095 20.5034L18.1127 20.3228L19.9192 22.1292Z" fill="white"/>
<path d="M21.3062 18.647L21.7262 20.3225L19.9197 22.129L18.1133 20.3225L18.5333 18.647C18.9488 18.8503 19.4184 18.9677 19.9197 18.9677C20.421 18.9677 20.8907 18.8548 21.3062 18.647ZM23.5326 13.5483C23.8939 13.5483 24.2236 13.6883 24.463 13.9187C24.5949 14.0429 24.7004 14.1923 24.7734 14.3581C24.8464 14.5239 24.8854 14.7027 24.8879 14.8839C24.8904 15.065 24.8565 15.2449 24.7882 15.4126C24.7198 15.5804 24.6184 15.7328 24.4901 15.8606C24.2462 16.1045 23.9075 16.258 23.5326 16.258H23.0449C23.072 16.109 23.081 15.96 23.081 15.8064V13.6838C23.081 13.6387 23.081 13.5935 23.072 13.5483H23.0765H23.5326Z" fill="#F0D0B4"/>
<path d="M23.0809 13.6836V15.8062C23.0809 15.9598 23.0718 16.1088 23.0448 16.2578C22.9737 16.7683 22.7779 17.2534 22.4746 17.6701C22.1713 18.0868 21.7699 18.4223 21.306 18.6469C20.8906 18.8546 20.4209 18.9675 19.9196 18.9675C19.4183 18.9675 18.9486 18.8501 18.5331 18.6469L17.6841 18.0372C17.2029 17.5559 16.8908 16.9315 16.7944 16.2578C16.7718 16.1088 16.7583 15.9552 16.7583 15.7972V13.5482C18.3389 13.3223 19.1293 12.8707 19.6757 12.4733C20.2267 12.0804 20.5293 11.7417 21.1389 11.7417C21.5228 11.7417 21.8977 11.8546 22.2138 12.0669C22.4622 12.23 22.6691 12.4489 22.818 12.706C22.967 12.9632 23.0539 13.2515 23.0718 13.5482C23.0809 13.5933 23.0809 13.6385 23.0809 13.6836Z" fill="#F0D0B4"/>
<path d="M16.3067 16.258C15.9319 16.258 15.5932 16.1045 15.3493 15.8606C15.2205 15.7324 15.1189 15.5795 15.0505 15.4112C14.9821 15.2428 14.9484 15.0624 14.9514 14.8807C14.9543 14.6989 14.9939 14.5197 15.0677 14.3536C15.1415 14.1876 15.248 14.0381 15.3809 13.9141C15.6203 13.6883 15.9454 13.5483 16.3067 13.5483H16.7583V15.7974C16.7583 15.9554 16.7719 16.109 16.7945 16.258H16.7899H16.3067Z" fill="#F0D0B4"/>
<path d="M24.8871 11.8459C24.8871 12.2297 24.8059 12.6813 24.711 13.0652C24.6162 13.4491 24.5123 13.7742 24.4626 13.9188C24.2233 13.6884 23.8936 13.5484 23.5323 13.5484H23.0717C23.0537 13.2518 22.9668 12.9635 22.8178 12.7063C22.6689 12.4492 22.462 12.2303 22.2136 12.0672C21.8955 11.8545 21.5214 11.7413 21.1388 11.742C20.5291 11.742 20.2265 12.0807 19.6755 12.4736C19.1291 12.871 18.3388 13.3226 16.7581 13.5484H16.3065C15.9452 13.5484 15.62 13.6884 15.3807 13.9142L15.0194 12.5594C14.9742 12.3878 14.9517 12.2072 14.9517 12.031C14.9517 11.7736 14.9968 11.5252 15.0826 11.2904C15.1459 11.1052 15.2362 10.9291 15.3491 10.771C15.602 10.4097 15.9633 10.1252 16.3968 9.96715L17.6613 9.50651L19.3684 8.8878C19.6904 8.77027 20.0286 8.70324 20.371 8.68909C20.4162 8.68457 20.4613 8.68457 20.5065 8.68457C21.0304 8.68457 21.5452 8.80651 22.0013 9.03683C22.4575 9.26715 22.8639 9.60135 23.18 10.0213L23.5323 10.491C23.9071 10.491 24.2459 10.6446 24.4897 10.8884C24.7336 11.1368 24.8871 11.471 24.8871 11.8459Z" fill="#656D78"/>
<path d="M27.7747 22.9984C27.3847 22.3153 26.8527 21.7239 26.2146 21.2639C25.5766 20.804 24.8473 20.4862 24.076 20.3321L22.0948 19.936L21.8279 18.8688C22.6129 18.3784 23.1803 17.6059 23.4135 16.7101H23.5323C24.5285 16.7101 25.3387 15.8999 25.3387 14.9037C25.3387 14.4959 25.1978 14.1237 24.9693 13.8212C25.1201 13.3411 25.3387 12.5295 25.3387 11.8481C25.3382 11.4102 25.1789 10.9874 24.8904 10.658C24.6019 10.3287 24.2038 10.1151 23.7698 10.057L23.5404 9.75168C23.2179 9.3252 22.8092 8.97139 22.341 8.7133C21.8727 8.4552 21.3554 8.2986 20.8226 8.25368V4.78123L16.0418 0H0.5V28H28.5V25.7288C28.5 24.7723 28.2494 23.828 27.7747 22.9984ZM22.1178 20.8614L21.8319 22.7495L20.6478 22.0392L21.8744 20.8126L22.1178 20.8614ZM17.9643 20.813L19.1909 22.0396L18.0068 22.75L17.7209 20.8618L17.9643 20.813ZM21.2254 20.1844L19.9194 21.4904L18.6133 20.1844L18.8459 19.2541C19.185 19.3606 19.5459 19.4189 19.9194 19.4198C20.2933 19.4198 20.6541 19.3625 20.9937 19.2568L21.2254 20.1844ZM22.629 15.8065C22.629 17.3008 21.4137 18.5161 19.9207 18.5161C19.2014 18.5129 18.5127 18.2253 18.0047 17.716C17.4968 17.2067 17.211 16.5171 17.2097 15.7979V13.9332C18.9213 13.627 19.6732 13.0512 20.2328 12.6235C20.6221 12.3254 20.8081 12.1935 21.1383 12.1935C21.4332 12.1935 21.719 12.2803 21.9652 12.4442C22.1694 12.58 22.3369 12.7641 22.4528 12.9802C22.5687 13.1963 22.6294 13.4377 22.6295 13.683L22.629 15.8065ZM23.5323 15.8065V14C24.0304 14 24.4355 14.4051 24.4355 14.9032C24.4355 15.4014 24.0304 15.8065 23.5323 15.8065ZM22.8178 10.2932L23.3065 10.9444H23.5323C24.0304 10.9444 24.4355 11.3495 24.4355 11.8476C24.4355 12.241 24.3298 12.7581 24.2002 13.2286C23.9881 13.1421 23.7613 13.0973 23.5323 13.0968H23.4595C23.3141 12.5216 22.96 12.0212 22.466 11.6927C22.0731 11.4299 21.6109 11.2899 21.1383 11.2903C20.4884 11.2903 20.0977 11.5893 19.6841 11.9059C19.1372 12.3245 18.4552 12.8443 16.721 13.0968H16.3065C16.0857 13.0981 15.867 13.1402 15.6615 13.221L15.4552 12.4519C15.352 12.034 15.4066 11.5927 15.6086 11.2126C15.8106 10.8325 16.1458 10.5403 16.5499 10.3921L19.521 9.31181C19.8372 9.19654 20.1712 9.13768 20.5078 9.13793C20.956 9.13877 21.3978 9.24353 21.7986 9.44398C22.1994 9.64443 22.5483 9.93511 22.8178 10.2932ZM19.2121 8.46277L18.1129 8.86245V5.41935H19.9194V8.28258C19.6784 8.31969 19.4415 8.38003 19.2121 8.46277ZM16.3065 4.51613V1.54181L19.2808 4.51613H16.3065ZM17.2097 5.41935V9.19077L16.241 9.54303C15.609 9.77449 15.0888 10.2377 14.7859 10.8387H4.1129V4.51613H15.4032V5.41935H17.2097ZM16.3065 14V15.7979L16.3069 15.8065C15.8088 15.8065 15.4032 15.4014 15.4032 14.9032C15.4032 14.4051 15.8083 14 16.3065 14ZM1.40323 0.903226H15.4032V3.6129H3.20968V11.7419H14.5226C14.5122 11.8372 14.5 11.9321 14.5 12.0292C14.5 12.245 14.5266 12.4605 14.5808 12.6786L14.883 13.8045C14.6364 14.1178 14.5016 14.5045 14.5 14.9032C14.5 15.8995 15.3102 16.7097 16.3065 16.7097H16.4275C16.6625 17.6032 17.229 18.3736 18.0117 18.8643L17.7439 19.936L15.7627 20.3321C14.9914 20.4861 14.2621 20.8038 13.6241 21.2637C12.986 21.7236 12.454 22.3149 12.064 22.9979C11.589 23.8296 11.339 24.7707 11.3387 25.7284V27.0968H1.40323V0.903226ZM27.5968 27.0968H24.8871V25.2903H23.9839V27.0968H15.8548V25.2903H14.9516V27.0968H12.2419V25.7288C12.2414 24.6652 12.6097 23.6343 13.2841 22.8117C13.9584 21.9891 14.8971 21.4258 15.9402 21.2177L16.8339 21.0388L17.3158 24.2177L19.9194 22.6556L22.5229 24.2177L23.0048 21.0388L23.8985 21.2177C24.9412 21.4267 25.8793 21.9902 26.5535 22.8126C27.2277 23.635 27.5963 24.6654 27.5968 25.7288V27.0968Z" fill="black"/>
<path d="M2.86212 25.471L7.38051 19.5978L8.09677 20.1488L3.57838 26.022L2.86212 25.471ZM7.27438 22.5807C6.52741 22.5807 5.91954 23.1886 5.91954 23.9356C5.91954 24.6825 6.52741 25.2904 7.27438 25.2904C8.02135 25.2904 8.62922 24.6825 8.62922 23.9356C8.62922 23.1886 8.02135 22.5807 7.27438 22.5807ZM7.27438 24.3872C7.02554 24.3872 6.82277 24.1844 6.82277 23.9356C6.82277 23.6867 7.02554 23.4839 7.27438 23.4839C7.52322 23.4839 7.726 23.6867 7.726 23.9356C7.726 24.1844 7.52322 24.3872 7.27438 24.3872ZM5.01632 21.6775C5.01632 20.9305 4.40845 20.3227 3.66148 20.3227C2.91451 20.3227 2.30664 20.9305 2.30664 21.6775C2.30664 22.4245 2.91451 23.0323 3.66148 23.0323C4.40845 23.0323 5.01632 22.4245 5.01632 21.6775ZM3.20987 21.6775C3.20987 21.4287 3.41264 21.2259 3.66148 21.2259C3.91032 21.2259 4.11309 21.4287 4.11309 21.6775C4.11309 21.9263 3.91032 22.1291 3.66148 22.1291C3.41264 22.1291 3.20987 21.9263 3.20987 21.6775ZM4.11309 12.6452H12.6937V13.5485H4.11309V12.6452ZM4.11309 16.2581H12.6937V17.1614H4.11309V16.2581ZM4.11309 14.4517H5.01632V15.3549H4.11309V14.4517ZM5.91954 14.4517H12.6937V15.3549H5.91954V14.4517ZM4.11309 18.0646H10.8873V18.9678H4.11309V18.0646ZM11.7905 18.0646H12.6937V18.9678H11.7905V18.0646ZM5.46793 6.32266H6.37116V9.93556H7.27438V6.32266H8.17761V5.41943H5.46793V6.32266ZM10.4357 5.41943C9.6887 5.41943 9.08083 6.0273 9.08083 6.77427V9.93556H9.98406V9.03234H10.8873V9.93556H11.7905V6.77427C11.7905 6.0273 11.1826 5.41943 10.4357 5.41943ZM9.98406 8.12911V6.77427C9.98406 6.52543 10.1868 6.32266 10.4357 6.32266C10.6845 6.32266 10.8873 6.52543 10.8873 6.77427V8.12911H9.98406ZM14.5002 6.18582L14.0486 6.86324L13.597 6.18582V5.41943H12.6937V6.4595L13.5057 7.6775L12.6937 8.8955V9.93556H13.597V9.16918L14.0486 8.49176L14.5002 9.16918V9.93556H15.4034V8.8955L14.5914 7.6775L15.4034 6.4595V5.41943H14.5002V6.18582Z" fill="black"/>
<defs>
<linearGradient id="paint0_linear_2641_5599" x1="10.6611" y1="4.06445" x2="10.6611" y2="14.988" gradientUnits="userSpaceOnUse">
<stop offset="0.421783" stop-color="#ED1C24"/>
<stop offset="1" stop-color="white"/>
</linearGradient>
</defs>
</svg>
