<svg width="31" height="30" viewBox="0 0 31 30" fill="none" xmlns="http://www.w3.org/2000/svg">
<path d="M15.5 30C23.7843 30 30.5 23.2843 30.5 15C30.5 6.71573 23.7843 0 15.5 0C7.21573 0 0.5 6.71573 0.5 15C0.5 23.2843 7.21573 30 15.5 30Z" fill="url(#paint0_linear_2641_5534)" fill-opacity="0.7"/>
<path d="M6.26563 29.5312H24.8281C25.8594 29.5312 26.7031 28.6875 26.7031 27.6562V2.34375C26.7031 1.3125 25.8594 0.46875 24.8281 0.46875H12.3594L4.39062 6.14062V27.6562C4.39062 28.6875 5.23438 29.5312 6.26563 29.5312Z" fill="#E0E4E8"/>
<path d="M24.7813 30H6.26563C4.95313 30 3.92188 28.9688 3.92188 27.6562V6.14062C3.92188 6 4.01562 5.85938 4.10937 5.76562L12.125 0.09375C12.2188 0.046875 12.3125 0 12.4062 0H24.8281C26.1406 0 27.1719 1.03125 27.1719 2.34375V27.6562C27.125 28.9688 26.0938 30 24.7813 30ZM4.85938 6.375V27.6562C4.85938 28.4531 5.46875 29.0625 6.26563 29.0625H24.8281C25.625 29.0625 26.2344 28.4531 26.2344 27.6562V2.34375C26.2344 1.54688 25.625 0.9375 24.8281 0.9375H12.5469L4.85938 6.375Z" fill="#003A51"/>
<path d="M24.7812 2.34375V27.6562H6.26562V6.14063L12.3594 2.34375H24.7812Z" fill="white"/>
<path d="M8.5249 18.2364L26.5207 12.6775L29.5769 22.5705L11.5807 28.1298L8.5249 18.2364Z" fill="#4FBF9F"/>
<path d="M11.5626 28.5938C11.4689 28.5938 11.422 28.5938 11.3282 28.5469C11.2345 28.5 11.1407 28.4063 11.0939 28.2657L8.04699 18.375C7.95324 18.1407 8.09386 17.8594 8.37511 17.7657L26.3751 12.1875C26.5157 12.1407 26.6095 12.1407 26.7501 12.2344C26.8907 12.3282 26.9376 12.375 26.9845 12.5157L30.0314 22.4063C30.1251 22.6407 29.9845 22.9219 29.7032 23.0157L11.7032 28.5938H11.5626ZM9.12512 18.5625L11.8907 27.5625L28.9532 22.2657L26.1876 13.2657L9.12512 18.5625Z" fill="#003A51"/>
<path d="M12.4062 24.4687L11.2812 20.7656C11.9844 20.5312 12.4062 19.7812 12.1719 19.0781L23.9844 15.4219C24.2187 16.125 24.9687 16.5469 25.6719 16.3125L26.7969 20.0156C26.0937 20.25 25.6719 21 25.9062 21.7031L14.0937 25.3594C13.9062 24.6562 13.1094 24.2812 12.4062 24.4687Z" fill="white"/>
<path d="M20.2846 24.3768C21.9418 23.8647 22.7339 21.6651 22.0537 19.4637C21.3735 17.2623 19.4787 15.8929 17.8215 16.4049C16.1642 16.9169 15.3722 19.1166 16.0524 21.318C16.7325 23.5194 18.6274 24.8888 20.2846 24.3768Z" fill="#4FBF9F"/>
<path d="M24.5938 19.4531C25.008 19.4531 25.3438 19.1173 25.3438 18.7031C25.3438 18.2889 25.008 17.9531 24.5938 17.9531C24.1795 17.9531 23.8438 18.2889 23.8438 18.7031C23.8438 19.1173 24.1795 19.4531 24.5938 19.4531Z" fill="#4FBF9F"/>
<path d="M13.4844 22.875C13.8986 22.875 14.2344 22.5392 14.2344 22.125C14.2344 21.7108 13.8986 21.375 13.4844 21.375C13.0702 21.375 12.7344 21.7108 12.7344 22.125C12.7344 22.5392 13.0702 22.875 13.4844 22.875Z" fill="#4FBF9F"/>
<path d="M20.0457 19.9765C19.8545 19.8888 19.6466 19.8857 19.4446 19.9674C19.2425 20.0491 19.1223 20.1525 19.0666 20.2833C19.038 20.3504 19.1394 20.642 19.1403 20.7063L19.1757 20.5785L18.7927 20.404C18.755 20.3915 18.711 20.3937 18.6708 20.4099L18.6411 20.422L18.4658 19.9884C18.3784 19.7723 18.2478 19.6656 18.1536 19.6141C18.0549 19.56 17.886 19.5163 17.6422 19.6149C17.5294 19.6605 17.4377 19.7111 17.3572 19.8096C17.2482 19.943 17.253 20.084 17.254 20.0996C17.2556 20.1287 17.2681 20.1554 17.2895 20.1756C17.3593 20.2415 17.4284 20.2959 17.4951 20.3378C17.532 20.361 17.5814 20.3664 17.6289 20.3527C17.6353 20.3509 17.6416 20.3488 17.6476 20.3463C17.6798 20.3333 17.7079 20.3119 17.7272 20.2853C17.7323 20.2819 17.7405 20.277 17.7509 20.2728C17.7532 20.2719 17.7556 20.2709 17.7581 20.2702C17.7843 20.2618 17.8551 20.259 17.8684 20.2918L18.0222 20.6723L17.5703 20.855C17.541 20.8669 17.5153 20.8856 17.4962 20.9089C17.4772 20.9321 17.4658 20.959 17.4633 20.986C17.4609 21.013 17.4675 21.039 17.4824 21.0608C17.4974 21.0826 17.5199 21.0992 17.5473 21.1085L17.9446 21.2445C17.9634 21.251 17.9841 21.2538 18.0053 21.2529C18.0265 21.2519 18.0478 21.2472 18.068 21.2391L18.2256 21.1753L18.5147 21.8903C18.5876 22.0708 18.7813 22.1733 18.9409 22.195C19.0864 22.2146 19.2397 22.2049 19.5151 22.0936C19.72 22.0107 20.1729 21.684 20.3453 21.3291C20.5203 20.9766 20.5534 20.6597 20.4434 20.3877C20.3662 20.1968 20.2323 20.0584 20.0457 19.9765ZM19.7008 20.9302C19.6948 21.0193 19.6617 21.12 19.6017 21.2313C19.511 21.3997 19.4106 21.5073 19.3031 21.5507C19.235 21.5783 19.1797 21.5882 19.1516 21.5781C19.1067 21.5617 19.0932 21.5402 19.0863 21.5232L18.8445 20.925L19.1417 20.7098C19.268 20.858 19.4703 20.994 19.7008 20.9302ZM20.2019 21.2884C20.0475 21.6061 19.6271 21.9038 19.4649 21.9694C19.2056 22.0742 19.0882 22.0725 18.9843 22.0583C18.8794 22.0442 18.7224 21.9741 18.6641 21.8297L18.3249 20.9907L18.0178 21.1149L17.6204 20.979L18.2218 20.7358L18.0178 20.2313C17.9723 20.1186 17.8117 20.112 17.721 20.1413C17.665 20.1594 17.6116 20.1958 17.5974 20.2222C17.5375 20.1846 17.4755 20.1355 17.4113 20.075C17.4113 20.075 17.4052 19.9728 17.4812 19.8799C17.5338 19.8156 17.5931 19.779 17.6922 19.739C17.8814 19.6625 17.9979 19.7008 18.0581 19.7338C18.1462 19.782 18.2467 19.8771 18.3162 20.0489L18.5416 20.6065L18.7208 20.5341L19.1038 20.6746L18.6448 20.8614L18.9368 21.5836C18.9598 21.6403 19.006 21.6812 19.0759 21.7065C19.1456 21.7319 19.2381 21.7212 19.3532 21.6746C19.5025 21.6143 19.6325 21.4815 19.743 21.2762C19.8563 21.0657 19.8872 20.8842 19.8356 20.7321L19.761 20.7685C19.4881 20.8788 19.3028 20.8137 19.2055 20.5729C19.1726 20.4916 19.1752 20.4061 19.2134 20.3164C19.2516 20.2268 19.3453 20.1518 19.4946 20.0915C19.6524 20.0277 19.8076 20.0309 19.9599 20.1011C20.1166 20.1695 20.2279 20.2852 20.2937 20.448C20.3911 20.6888 20.3605 20.9689 20.2019 21.2884Z" fill="white"/>
<path d="M12.3594 0.46875L4.39062 6.14063H10.5312C11.5625 6.14063 12.4062 5.29688 12.4062 4.26563L12.3594 0.46875Z" fill="url(#paint1_linear_2641_5534)" fill-opacity="0.7"/>
<path d="M10.484 6.6094H4.39029C4.20279 6.6094 4.01529 6.46878 3.92154 6.28128C3.82779 6.09378 3.92154 5.8594 4.10904 5.76565L12.1247 0.0937783C12.2653 2.83103e-05 12.4528 2.83271e-05 12.5934 0.0469033C12.734 0.140653 12.8278 0.281278 12.8278 0.468778V4.26565C12.8278 5.57815 11.7965 6.6094 10.484 6.6094ZM5.84342 5.6719H10.484C11.2809 5.6719 11.8903 5.06253 11.8903 4.26565V1.3594L5.84342 5.6719ZM15.359 5.39065H16.2965V6.32815H15.359V5.39065ZM18.1715 5.39065H19.109V6.32815H18.1715V5.39065ZM21.0309 5.39065H21.9684V6.32815H21.0309V5.39065ZM8.37467 7.78128H21.9684V8.71878H8.37467V7.78128ZM8.37467 10.3125H21.9684V11.25H8.37467V10.3125ZM8.37467 12.8907H15.1715V13.8282H8.37467V12.8907Z" fill="#003A51"/>
<defs>
<linearGradient id="paint0_linear_2641_5534" x1="38.9413" y1="34.1713" x2="-10.5645" y2="30.1742" gradientUnits="userSpaceOnUse">
<stop offset="0.341164" stop-color="#FF5D50" stop-opacity="0.95"/>
<stop offset="0.75824" stop-color="#F7000B"/>
</linearGradient>
<linearGradient id="paint1_linear_2641_5534" x1="13.6197" y1="7.54171" x2="3.38841" y2="2.95693" gradientUnits="userSpaceOnUse">
<stop stop-color="#FF5D50"/>
<stop offset="0.9" stop-color="#F7000B"/>
</linearGradient>
</defs>
</svg>
