<svg width="36" height="36" viewBox="0 0 36 36" fill="none" xmlns="http://www.w3.org/2000/svg">
<path d="M28.5514 0.600098C29.0452 0.600098 29.5189 0.78974 29.8681 1.12731C30.2173 1.46487 30.4135 1.92271 30.4135 2.4001C30.4135 2.87749 30.2173 3.33532 29.8681 3.67289C29.5189 4.01046 29.0452 4.2001 28.5514 4.2001H8.68923C8.19537 4.2001 7.72175 4.01046 7.37254 3.67289C7.02333 3.33532 6.82715 2.87749 6.82715 2.4001C6.82715 1.92271 7.02333 1.46487 7.37254 1.12731C7.72175 0.78974 8.19537 0.600098 8.68923 0.600098H28.5514Z" fill="white"/>
<path d="M16.138 21.0001H10.5518V15.6001C12.0333 15.6001 13.4542 16.169 14.5018 17.1817C15.5494 18.1944 16.138 19.5679 16.138 21.0001ZM26.6898 15.6001V21.0001H21.1035C21.1035 19.5679 21.6921 18.1944 22.7397 17.1817C23.7873 16.169 25.2082 15.6001 26.6898 15.6001Z" fill="#50D695"/>
<path d="M26.6898 0.600098V15.6001C25.2082 15.6001 23.7873 16.169 22.7397 17.1817C21.6921 18.1944 21.1035 19.5679 21.1035 21.0001H16.138C16.138 19.5679 15.5494 18.1944 14.5018 17.1817C13.4542 16.169 12.0333 15.6001 10.5518 15.6001V0.600098H26.6898Z" fill="#5AE4A7"/>
<path d="M17.379 30.6001V35.4001H6.20654V30.6001H16.1376H17.379Z" fill="#EB5468"/>
<path d="M13.0341 20.9999V16.1999C13.0341 15.7225 13.2303 15.2647 13.5795 14.9271C13.9287 14.5896 14.4023 14.3999 14.8962 14.3999C15.39 14.3999 15.8637 14.5896 16.2129 14.9271C16.5621 15.2647 16.7583 15.7225 16.7583 16.1999V20.3999L17.0065 20.9999L17.5527 22.3259C17.8497 23.035 18.0015 23.793 17.9996 24.5579V25.3379C18.0001 26.4268 17.6932 27.4952 17.112 28.4279L16.1376 29.9999V30.5999H7.44786V28.1999L6.56648 20.5319C6.33162 18.4967 6.77756 16.4423 7.8389 14.6699L10.5513 10.1279V20.9999H13.0341Z" fill="#FFD9B1"/>
<path d="M6.82753 11.4L3.72407 15L0.620605 11.4H2.48268V0H4.96545V11.4H6.82753ZM35.3794 19.8L32.2759 23.4L29.1725 19.8H31.0345V8.4H33.5173V19.8H35.3794Z" fill="url(#paint0_linear_2641_7889)" fill-opacity="0.5"/>
<path d="M18.6206 10.2C20.6774 10.2 22.3448 8.58822 22.3448 6.6C22.3448 4.61177 20.6774 3 18.6206 3C16.5638 3 14.8965 4.61177 14.8965 6.6C14.8965 8.58822 16.5638 10.2 18.6206 10.2Z" fill="#FFE5C1"/>
<path d="M10.5518 0.600098H26.6898V1.8001H10.5518V0.600098Z" fill="#00B39D"/>
<path d="M22.9656 6.5999C22.9656 5.76922 22.7108 4.9572 22.2333 4.26651C21.7559 3.57582 21.0773 3.0375 20.2834 2.71961C19.4895 2.40172 18.6159 2.31855 17.7731 2.48061C16.9303 2.64266 16.1561 3.04268 15.5485 3.63006C14.9408 4.21744 14.527 4.9658 14.3594 5.78052C14.1917 6.59524 14.2778 7.43972 14.6066 8.20717C14.9355 8.97462 15.4924 9.63057 16.2069 10.0921C16.9214 10.5536 17.7614 10.7999 18.6207 10.7999C19.7727 10.7986 20.877 10.3557 21.6916 9.56835C22.5061 8.78097 22.9643 7.71342 22.9656 6.5999ZM15.5173 6.5999C15.5173 6.00656 15.6993 5.42654 16.0403 4.93319C16.3813 4.43985 16.866 4.05533 17.4331 3.82827C18.0002 3.6012 18.6242 3.54179 19.2262 3.65755C19.8282 3.7733 20.3812 4.05903 20.8152 4.47858C21.2492 4.89814 21.5448 5.43269 21.6646 6.01463C21.7843 6.59658 21.7228 7.19978 21.488 7.74795C21.2531 8.29613 20.8553 8.76467 20.3449 9.09431C19.8346 9.42396 19.2345 9.5999 18.6207 9.5999C17.7979 9.59895 17.0091 9.28258 16.4273 8.72017C15.8455 8.15777 15.5183 7.39526 15.5173 6.5999Z" fill="#2C3131"/>
<path d="M28.5516 0H8.6894C8.03093 0 7.39943 0.252856 6.93382 0.702944C6.46821 1.15303 6.20663 1.76348 6.20663 2.4C6.20663 3.03652 6.46821 3.64697 6.93382 4.09706C7.39943 4.54714 8.03093 4.8 8.6894 4.8H9.93079V9.966L7.29905 14.37C6.16776 16.2515 5.69534 18.4359 5.95215 20.598L6.82732 28.236V30H6.20663C6.04201 30 5.88414 30.0632 5.76773 30.1757C5.65133 30.2883 5.58594 30.4409 5.58594 30.6V35.4C5.58594 35.5591 5.65133 35.7117 5.76773 35.8243C5.88414 35.9368 6.04201 36 6.20663 36H17.3791C17.5437 36 17.7016 35.9368 17.818 35.8243C17.9344 35.7117 17.9998 35.5591 17.9998 35.4V30.6C17.9998 30.4409 17.9344 30.2883 17.818 30.1757C17.7016 30.0632 17.5437 30 17.3791 30H16.8639L17.646 28.74C18.2848 27.7128 18.6218 26.5366 18.6205 25.338V24.558C18.6216 23.7171 18.4552 22.884 18.1301 22.104L17.9191 21.6H26.6895C26.8541 21.6 27.012 21.5368 27.1284 21.4243C27.2448 21.3117 27.3102 21.1591 27.3102 21V4.8H28.5516C29.21 4.8 29.8415 4.54714 30.3072 4.09706C30.7728 3.64697 31.0343 3.03652 31.0343 2.4C31.0343 1.76348 30.7728 1.15303 30.3072 0.702944C29.8415 0.252856 29.21 0 28.5516 0ZM11.1722 16.242C11.5989 16.2933 12.0165 16.4003 12.4136 16.56V20.4H11.1722V16.242ZM8.6894 3.6C8.36047 3.59905 8.04529 3.47232 7.81269 3.24748C7.5801 3.02264 7.449 2.71797 7.44802 2.4C7.45045 2.08247 7.58202 1.77861 7.8143 1.55407C8.04658 1.32954 8.36092 1.20236 8.6894 1.2H9.93079V3.6H8.6894ZM16.7584 34.8H6.82732V31.2H16.7584V34.8ZM17.3791 25.338C17.3805 26.3193 17.1036 27.2822 16.5784 28.122L15.6039 29.694C15.5471 29.7866 15.5171 29.8923 15.517 30H8.06871V28.2C8.06973 28.1778 8.06764 28.1556 8.0625 28.134L7.18112 20.466C6.95962 18.5572 7.37965 16.6301 8.37906 14.97L9.93079 12.366V21C9.93079 21.1591 9.99618 21.3117 10.1126 21.4243C10.229 21.5368 10.3869 21.6 10.5515 21.6H12.4136V22.2H13.6549V16.2C13.6559 15.882 13.787 15.5774 14.0196 15.3525C14.2522 15.1277 14.5674 15.0009 14.8963 15C15.2248 15.0024 15.5392 15.1295 15.7714 15.3541C16.0037 15.5786 16.1353 15.8825 16.1377 16.2V20.4C16.1365 20.4761 16.1513 20.5516 16.1812 20.622L16.9757 22.554C17.2438 23.1902 17.3809 23.871 17.3791 24.558V25.338ZM26.0688 20.4H21.7674C21.9059 19.344 22.4037 18.3624 23.1823 17.6098C23.961 16.8571 24.9764 16.3759 26.0688 16.242V20.4ZM26.0688 15.03C24.6447 15.1697 23.3142 15.7804 22.302 16.7588C21.2898 17.7372 20.6581 19.0234 20.5136 20.4H17.4288L17.3791 20.286V16.2C17.3801 15.6401 17.1782 15.0975 16.8085 14.6665C16.4388 14.2355 15.9245 13.9433 15.3551 13.8406C14.7857 13.7379 14.1971 13.8313 13.6915 14.1045C13.1859 14.3777 12.7952 14.8134 12.5874 15.336C12.1295 15.1823 11.6545 15.0816 11.1722 15.036V1.2H26.0688V15.03ZM29.4267 3.246C29.3123 3.35804 29.1761 3.44702 29.0259 3.50779C28.8756 3.56855 28.7144 3.59989 28.5516 3.6H27.3102V1.2H28.5516C28.8805 1.20095 29.1957 1.32768 29.4283 1.55252C29.6609 1.77736 29.792 2.08203 29.793 2.4C29.7928 2.55742 29.7604 2.71326 29.6976 2.85848C29.6347 3.0037 29.5427 3.13542 29.4267 3.246ZM35.9415 19.5456C35.8915 19.4423 35.812 19.3549 35.7124 19.2937C35.6128 19.2325 35.4972 19.2 35.3792 19.2H34.1378V8.4H32.8964V19.8C32.8964 19.9591 32.9618 20.1117 33.0782 20.2243C33.1946 20.3368 33.3525 20.4 33.5171 20.4H34.054L32.2757 22.4628L30.4974 20.4H31.0343C31.199 20.4 31.3568 20.3368 31.4732 20.2243C31.5896 20.1117 31.655 19.9591 31.655 19.8V8.4H30.4136V19.2H29.1723C29.0543 19.2 28.9388 19.2326 28.8393 19.2938C28.7398 19.355 28.6604 19.4423 28.6104 19.5455C28.5604 19.6488 28.5418 19.7637 28.5569 19.8768C28.572 19.9898 28.6201 20.0964 28.6956 20.184L31.799 23.784C31.8573 23.8515 31.9302 23.9058 32.0126 23.9431C32.0949 23.9804 32.1848 23.9997 32.2757 23.9997C32.3667 23.9997 32.4565 23.9804 32.5389 23.9431C32.6213 23.9058 32.6942 23.8515 32.7524 23.784L35.8559 20.184C35.9314 20.0965 35.9796 19.9899 35.9948 19.8768C36.0099 19.7638 35.9915 19.6489 35.9415 19.5456Z" fill="black" fill-opacity="0.95"/>
<path d="M7.38974 11.1456C7.33969 11.0423 7.26021 10.9549 7.16061 10.8937C7.06101 10.8325 6.94542 10.8 6.82739 10.8H5.586V0H4.34462V11.4C4.34462 11.5591 4.41001 11.7117 4.52641 11.8243C4.64282 11.9368 4.80069 12 4.96531 12H5.50221L3.72392 14.0628L1.94564 12H2.48254C2.64716 12 2.80503 11.9368 2.92143 11.8243C3.03784 11.7117 3.10323 11.5591 3.10323 11.4V0H1.86185V10.8H0.620461C0.50252 10.8 0.387033 10.8326 0.287523 10.8938C0.188014 10.955 0.1086 11.0423 0.0585826 11.1455C0.00856471 11.2488 -0.00998715 11.3637 0.00509943 11.4767C0.020186 11.5898 0.0682866 11.6964 0.143768 11.784L3.24723 15.384C3.30548 15.4515 3.37838 15.5058 3.46075 15.5431C3.54313 15.5804 3.63297 15.5997 3.72392 15.5997C3.81488 15.5997 3.90472 15.5804 3.9871 15.5431C4.06947 15.5058 4.14236 15.4515 4.20062 15.384L7.30408 11.784C7.37963 11.6964 7.42781 11.5899 7.44298 11.4768C7.45815 11.3638 7.43968 11.2489 7.38974 11.1456Z" fill="black"/>
<defs>
<linearGradient id="paint0_linear_2641_7889" x1="2.84227" y1="12.3158" x2="-0.983772" y2="1.33285" gradientUnits="userSpaceOnUse">
<stop stop-color="#FF5D50"/>
<stop offset="0.9" stop-color="#F7000B"/>
</linearGradient>
</defs>
</svg>
